<svg width="32" height="35" viewBox="0 0 32 35" fill="none" xmlns="http://www.w3.org/2000/svg">
<path d="M8.31625 34.96C7.64425 33.136 6.94025 31.44 6.20425 29.872C5.46825 28.304 4.65225 26.768 3.75625 25.264C2.86025 23.76 1.82025 22.192 0.63625 20.56L5.82025 17.2C7.06825 19.152 8.15625 21.104 9.08425 23.056C10.0123 25.008 10.8763 26.96 11.6763 28.912H11.8683C13.0203 25.072 14.3643 21.424 15.9003 17.968C17.4683 14.48 19.1643 11.296 20.9883 8.416C22.8443 5.504 24.7963 2.992 26.8443 0.879997L31.8363 5.2C29.8203 7.088 27.8363 9.376 25.8843 12.064C23.9643 14.752 22.1403 17.92 20.4123 21.568C18.7163 25.184 17.2123 29.36 15.9003 34.096L8.31625 34.96Z" fill="#CF2045"/>
</svg>
