<?xml version="1.0" encoding="utf-8"?>
<!-- Generator: Adobe Illustrator 25.1.0, SVG Export Plug-In . SVG Version: 6.00 Build 0)  -->
<svg version="1.1" id="Layer_1" xmlns="http://www.w3.org/2000/svg" xmlns:xlink="http://www.w3.org/1999/xlink" x="0px" y="0px"
	 viewBox="0 0 47 47" style="enable-background:new 0 0 47 47;" xml:space="preserve">
<style type="text/css">
	.st0{fill:none;stroke:#D02144;stroke-width:4;}
</style>
<path class="st0" d="M3.9,45C3.9,45,3.9,45,3.9,45c-0.1,0-0.2,0-0.3,0c-0.2,0-0.5-0.1-0.8-0.2c-0.3-0.1-0.4-0.3-0.6-0.5
	C2.2,44.1,2,43.7,2,43.1c0-1.4,0.8-4.8,3.8-7.9c3-3,8.3-5.8,17.7-5.8s14.7,2.8,17.7,5.8c3,3,3.8,6.4,3.8,7.9c0,0.6-0.2,1-0.3,1.2
	c-0.1,0.2-0.3,0.4-0.6,0.5c-0.3,0.1-0.5,0.2-0.8,0.2c-0.1,0-0.2,0-0.3,0c0,0,0,0,0,0H3.9z M30.4,18.6c-1.8,1.8-4.3,2.9-6.9,2.9
	s-5.1-1-6.9-2.9c-1.8-1.8-2.9-4.3-2.9-6.9c0-2.6,1-5.1,2.9-6.9S20.9,2,23.5,2s5.1,1,6.9,2.9s2.9,4.3,2.9,6.9
	C33.2,14.3,32.2,16.8,30.4,18.6z"/>
</svg>
