<svg id="Layer_1" data-name="Layer 1" xmlns="http://www.w3.org/2000/svg" xmlns:xlink="http://www.w3.org/1999/xlink" viewBox="0 0 192.33 68.22"><defs><style>.cls-1{clip-rule:evenodd;}.cls-2{fill:#cd2043;}.cls-3{fill:#3a9ed2;}.cls-4{fill:#cd2144;}.cls-5{fill-rule:evenodd;}.cls-6{clip-path:url(#clip-path);}.cls-7{clip-path:url(#clip-path-2);}.cls-8{fill:#cd2245;}.cls-9{fill:none;stroke:#3a9ed2;stroke-linecap:round;stroke-miterlimit:10;stroke-width:1.75px;}</style><clipPath id="clip-path"><polygon class="cls-1" points="95.74 10.49 97.94 3.05 100.07 10.49 107.68 8.8 102.35 14.14 107.99 19.62 100.07 17.83 97.94 25.16 95.74 17.83 87.96 19.62 93.47 14.14 87.96 8.8 95.74 10.49"/></clipPath><clipPath id="clip-path-2"><rect class="cls-2" x="86.92" y="-6.31" width="41.11" height="43.19"/></clipPath></defs><title>cf_logo1</title><path class="cls-3" d="M15,19.54V23a10.19,10.19,0,0,1-3.8.71,10.21,10.21,0,0,1-4-.8,10.89,10.89,0,0,1-3.29-2.17,10.19,10.19,0,0,1-2.22-3.21A9.65,9.65,0,0,1,.8,13.63a9.84,9.84,0,0,1,.81-4A10.17,10.17,0,0,1,3.83,6.44,10.68,10.68,0,0,1,7.12,4.28a10.21,10.21,0,0,1,4-.8,10.39,10.39,0,0,1,3.8.7V7.72a6.7,6.7,0,0,0-1.07-.54,6.93,6.93,0,0,0-2.73-.54,7,7,0,0,0-2.75.54A6.84,6.84,0,0,0,6.16,8.66a7,7,0,0,0-1.51,2.23,7.22,7.22,0,0,0,0,5.48,7,7,0,0,0,6.5,4.26,6.76,6.76,0,0,0,2.73-.55A6.7,6.7,0,0,0,15,19.54Z"/><path class="cls-3" d="M40.32,13.63a9.65,9.65,0,0,1-.81,3.94,10.19,10.19,0,0,1-2.22,3.21A11,11,0,0,1,34,23,10.55,10.55,0,0,1,26,23a10.84,10.84,0,0,1-3.28-2.17,10,10,0,0,1-2.22-3.21,9.65,9.65,0,0,1-.81-3.94,9.84,9.84,0,0,1,.81-4,10,10,0,0,1,2.22-3.23A10.63,10.63,0,0,1,26,4.28a10.55,10.55,0,0,1,8.06,0,10.75,10.75,0,0,1,3.28,2.16,10.17,10.17,0,0,1,2.22,3.23A9.84,9.84,0,0,1,40.32,13.63ZM23,13.63a6.94,6.94,0,0,0,.54,2.74A7,7,0,0,0,25,18.6a6.92,6.92,0,0,0,2.24,1.49,7,7,0,0,0,9.21-3.72,7.1,7.1,0,0,0,0-5.48A7,7,0,0,0,35,8.66a6.84,6.84,0,0,0-2.24-1.48,7.22,7.22,0,0,0-5.48,0A6.73,6.73,0,0,0,25,8.66a7,7,0,0,0-1.51,2.23A6.94,6.94,0,0,0,23,13.63Z"/><path class="cls-3" d="M46.4,23.75V3.62h3.71a9.66,9.66,0,0,1,7.11,3,9.66,9.66,0,0,1,3,7.11,9.69,9.69,0,0,1-3,7.11,9.67,9.67,0,0,1-7.11,3ZM49.46,6.67v14h.65a7,7,0,0,0,7-7,6.72,6.72,0,0,0-2.06-5,6.74,6.74,0,0,0-5-2.05Z"/><path class="cls-3" d="M66.25,3.62h9.33V6.68H69.33v7.44h6.25v3.06H69.33v3.5h6.25v3.07H66.25Z"/><path class="cls-3" d="M137.2,3.62h9.33V6.68h-6.25v5.47h6.25v3.07h-6.25v8.53H137.2Z"/><path class="cls-3" d="M172.48,13.63a9.65,9.65,0,0,1-.81,3.94,10.19,10.19,0,0,1-2.22,3.21A11,11,0,0,1,166.17,23a10.55,10.55,0,0,1-8.06,0,10.84,10.84,0,0,1-3.28-2.17,10,10,0,0,1-2.22-3.21,9.65,9.65,0,0,1-.81-3.94,9.88,9.88,0,0,1,.81-4,10,10,0,0,1,2.22-3.23,10.63,10.63,0,0,1,3.28-2.16,10.67,10.67,0,0,1,8.06,0,10.75,10.75,0,0,1,3.28,2.16,10.17,10.17,0,0,1,2.22,3.23A9.88,9.88,0,0,1,172.48,13.63Zm-17.38,0a7,7,0,0,0,.55,2.74,7,7,0,0,0,1.51,2.23,6.92,6.92,0,0,0,2.24,1.49,7,7,0,0,0,9.21-3.72,7.1,7.1,0,0,0,0-5.48,7,7,0,0,0-1.49-2.23,6.84,6.84,0,0,0-2.24-1.48,7.22,7.22,0,0,0-5.48,0,6.73,6.73,0,0,0-2.24,1.48,7,7,0,0,0-1.51,2.23A7,7,0,0,0,155.1,13.63Z"/><path class="cls-3" d="M186,17.76l2.87,6h-3.28l-2.17-4.66a8,8,0,0,1-2.33.33h-.23v4.31h-3.06V3.49H181a7.68,7.68,0,0,1,5.65,2.33A7.69,7.69,0,0,1,189,11.46a7.69,7.69,0,0,1-2.34,5.64A7.6,7.6,0,0,1,186,17.76Zm-5.14-1.35H181a5,5,0,0,0,5-4.95A4.74,4.74,0,0,0,184.54,8,4.74,4.74,0,0,0,181,6.51h-.23Z"/><path class="cls-4" d="M26,58.7V65a18.06,18.06,0,0,1-6.79,1.27A18,18,0,0,1,12,64.79a19.2,19.2,0,0,1-5.86-3.86,18.25,18.25,0,0,1-4-5.73,17.16,17.16,0,0,1-1.45-7,17.47,17.47,0,0,1,1.45-7.07,18.09,18.09,0,0,1,4-5.77A19,19,0,0,1,12,31.46a18.34,18.34,0,0,1,7.2-1.41A18.44,18.44,0,0,1,26,31.29v6.32a13.06,13.06,0,0,0-1.9-1,12.54,12.54,0,0,0-4.89-1,12.55,12.55,0,0,0-4.9,1,12.51,12.51,0,0,0-4,20.39,12.64,12.64,0,0,0,8.91,3.63,12.38,12.38,0,0,0,4.89-1A13.11,13.11,0,0,0,26,58.7Z"/><path class="cls-4" d="M31.88,30.29h5.47V45.52H50V30.29h5.47V66.22H50V51H37.35V66.22H31.88Z"/><path class="cls-4" d="M61.32,30.29h5.47V66.22H61.32Z"/><path class="cls-4" d="M96.91,58.7V65a18.81,18.81,0,0,1-14-.16,19.2,19.2,0,0,1-5.86-3.86,18.09,18.09,0,0,1-4-5.73,17.17,17.17,0,0,1-1.46-7,17.48,17.48,0,0,1,1.46-7.07,17.93,17.93,0,0,1,4-5.77,19,19,0,0,1,5.86-3.86,19.15,19.15,0,0,1,14-.17v6.32a12.68,12.68,0,0,0-1.91-1,12.49,12.49,0,0,0-4.88-1,12.63,12.63,0,0,0-4.91,1,12.52,12.52,0,0,0-4,20.39,12.6,12.6,0,0,0,8.91,3.63,12.33,12.33,0,0,0,4.88-1A12.73,12.73,0,0,0,96.91,58.7Z"/><path class="cls-4" d="M114.75,29.92l9.81,36.42H119l-1.54-5.76h-8.69l-1.53,5.76h-5.59l9.81-36.42ZM110.31,54.8h5.56l-2.76-11.64Z"/><path class="cls-4" d="M145.7,60.49V51h-3.79V45.52h8.47V65a18.79,18.79,0,0,1-14-.16,19.08,19.08,0,0,1-5.86-3.86,18.12,18.12,0,0,1-4-5.73,17.16,17.16,0,0,1-1.45-7,17.47,17.47,0,0,1,1.45-7.07,18,18,0,0,1,4-5.77,18.9,18.9,0,0,1,5.86-3.86,19.12,19.12,0,0,1,14-.17v6.32a13,13,0,0,0-11.69-1,12.26,12.26,0,0,0-4,2.65,12.51,12.51,0,0,0,8.91,21.37A13.32,13.32,0,0,0,145.7,60.49Z"/><path class="cls-4" d="M191.72,48.16a17.16,17.16,0,0,1-1.45,7,18.12,18.12,0,0,1-4,5.73,19,19,0,0,1-5.85,3.86,18.79,18.79,0,0,1-14.38,0,19.2,19.2,0,0,1-5.86-3.86,18.12,18.12,0,0,1-4-5.73,17.32,17.32,0,0,1-1.45-7,17.64,17.64,0,0,1,1.45-7.07,18,18,0,0,1,4-5.77,19,19,0,0,1,5.86-3.86,19,19,0,0,1,14.38,0,18.85,18.85,0,0,1,5.85,3.86,18,18,0,0,1,4,5.77A17.47,17.47,0,0,1,191.72,48.16Zm-31,0a12.3,12.3,0,0,0,1,4.89,12.53,12.53,0,0,0,11.6,7.61A12.55,12.55,0,0,0,182.14,57a12.63,12.63,0,0,0,2.68-4,12.84,12.84,0,0,0,0-9.79,12.7,12.7,0,0,0-2.68-4,12.11,12.11,0,0,0-4-2.65,13.09,13.09,0,0,0-9.79,0,12.26,12.26,0,0,0-4,2.65,12.56,12.56,0,0,0-2.69,4A12.39,12.39,0,0,0,160.7,48.16Z"/><polygon class="cls-5" points="95.74 10.49 97.94 3.05 100.07 10.49 107.68 8.8 102.35 14.14 107.99 19.62 100.07 17.83 97.94 25.16 95.74 17.83 87.96 19.62 93.47 14.14 87.96 8.8 95.74 10.49"/><g class="cls-6"><rect class="cls-2" x="86.92" y="-6.31" width="41.11" height="43.19"/><g class="cls-7"><rect class="cls-8" x="86.66" y="1.75" width="22.63" height="24.72"/></g></g><polyline class="cls-9" points="112.12 8.11 106.22 14.16 112.12 20.2"/><polyline class="cls-9" points="117.13 8.11 123.03 14.16 117.13 20.2"/></svg>