<?xml version="1.0" encoding="UTF-8" standalone="no"?>
<!DOCTYPE svg PUBLIC "-//W3C//DTD SVG 1.1//EN" "http://www.w3.org/Graphics/SVG/1.1/DTD/svg11.dtd">
<svg width="100%" height="100%" viewBox="0 0 37 23" version="1.1" xmlns="http://www.w3.org/2000/svg" xmlns:xlink="http://www.w3.org/1999/xlink" xml:space="preserve" xmlns:serif="http://www.serif.com/" style="fill-rule:evenodd;clip-rule:evenodd;stroke-linecap:round;stroke-miterlimit:10;">
    <g transform="matrix(1,0,0,1,0.43,0.265)">
        <g transform="matrix(1,0,0,1,-87.96,-3.05)">
            <clipPath id="_clip1">
                <path d="M95.74,10.49L97.94,3.05L100.07,10.49L107.68,8.8L102.35,14.14L107.99,19.62L100.07,17.83L97.94,25.16L95.74,17.83L87.96,19.62L93.47,14.14L87.96,8.8L95.74,10.49Z"/>
            </clipPath>
            <g clip-path="url(#_clip1)">
                <rect x="86.92" y="-6.31" width="41.11" height="43.19" style="fill:rgb(205,32,67);"/>
                <g>
                    <rect x="86.66" y="1.75" width="22.63" height="24.72" style="fill:rgb(205,34,69);"/>
                </g>
            </g>
        </g>
        <g transform="matrix(1,0,0,1,-87.96,-3.05)">
            <path d="M112.12,8.11L106.22,14.16L112.12,20.2" style="fill:none;fill-rule:nonzero;stroke:rgb(58,158,210);stroke-width:1.75px;"/>
        </g>
        <g transform="matrix(1,0,0,1,-87.96,-3.05)">
            <path d="M117.13,8.11L123.03,14.16L117.13,20.2" style="fill:none;fill-rule:nonzero;stroke:rgb(58,158,210);stroke-width:1.75px;"/>
        </g>
    </g>
</svg>
