<svg width="60" height="60" viewBox="0 0 60 60" fill="none" xmlns="http://www.w3.org/2000/svg">
<path d="M30.3 42.075C30.3 42.405 30.555 42.675 30.8625 42.675H44.7375C45.045 42.675 45.3 42.405 45.3 42.075V38.475C45.3 38.145 45.045 37.875 44.7375 37.875H30.8625C30.555 37.875 30.3 38.145 30.3 38.475V42.075ZM15.6825 42.5325L30.0825 30.4575C30.3675 30.2175 30.3675 29.775 30.0825 29.535L15.6825 17.4675C15.5956 17.3936 15.4893 17.3462 15.3762 17.3309C15.2631 17.3156 15.148 17.333 15.0445 17.3812C14.9411 17.4294 14.8537 17.5062 14.7926 17.6026C14.7315 17.699 14.6994 17.8109 14.7 17.925V22.6275C14.7 22.8075 14.775 22.9725 14.9175 23.085L23.1525 30L14.9175 36.915C14.8505 36.9711 14.7963 37.041 14.7588 37.12C14.7213 37.199 14.7012 37.2851 14.7 37.3725V42.075C14.7 42.585 15.2925 42.8625 15.6825 42.5325ZM57.6 0H2.4C1.0725 0 0 1.0725 0 2.4V57.6C0 58.9275 1.0725 60 2.4 60H57.6C58.9275 60 60 58.9275 60 57.6V2.4C60 1.0725 58.9275 0 57.6 0ZM54.6 54.6H5.4V5.4H54.6V54.6Z" fill="#CF2045"/>
</svg>
