<?xml version="1.0" encoding="utf-8"?>
<!-- Generator: Adobe Illustrator 25.1.0, SVG Export Plug-In . SVG Version: 6.00 Build 0)  -->
<svg version="1.1" id="Layer_1" xmlns="http://www.w3.org/2000/svg" xmlns:xlink="http://www.w3.org/1999/xlink" x="0px" y="0px"
	 viewBox="0 0 49 47" style="enable-background:new 0 0 49 47;" xml:space="preserve">
<style type="text/css">
	.st0{fill-rule:evenodd;clip-rule:evenodd;fill:#D02144;}
</style>
<path class="st0" d="M47.2,0.2c0.4,0.2,0.7,0.5,0.9,0.8c0.2,0.4,0.4,0.8,0.4,1.2l-3.7-1.8c0,0,0,0,0,0l0,0l-0.2,0.2
	c-0.3,0.2-0.7,0.5-1,0.7c-1.4,0.8-2.9,1.6-4.4,2.2c-4,1.6-10.2,3.2-18.6,3.2c-0.8-0.5-1.7-0.8-2.6-0.8h-5.7c-2.8,0-5.5,1-7.7,2.8
	c-2.2,1.8-3.7,4.3-4.2,7c-0.5,2.8-0.1,5.6,1.2,8.1c1.3,2.5,3.5,4.4,6.1,5.5c0,0,0,0.1,0,0.1c0,7,1.5,11.9,2.5,14.4
	c0.8,2,2.7,3,4.6,3h3.6c2.1,0,3.7-1.2,4.7-2.6c1-1.4,1.4-3.3,0.9-5.1c-0.6-2.3-1.2-5.6-1.2-9.7c7.3,0.3,12.7,1.7,16.3,3.2
	c1.5,0.6,3,1.3,4.4,2.2c0.4,0.3,0.9,0.5,1.3,0.8l0,0h0c0.3,0.3,0.7,0.4,1.2,0.5c0.4,0.1,0.9,0,1.2-0.2s0.7-0.5,0.9-0.8
	c0.2-0.4,0.4-0.8,0.4-1.2V2.3l-3.7-1.8C45.2,0.2,45.6,0.1,46,0C46.4,0,46.8,0,47.2,0.2L47.2,0.2z M12.1,30.3c0.1,6,1.4,10,2.1,12
	c0,0,0,0.1,0.1,0.1c0.1,0.1,0.2,0.1,0.3,0.1h3.6c0.3,0,0.6-0.1,0.9-0.6c0.1-0.2,0.2-0.4,0.3-0.7c0.1-0.2,0.1-0.5,0-0.8
	c-0.8-3.3-1.3-6.7-1.3-10.1c-0.1,0-0.2,0-0.3,0H12.1L12.1,30.3z M22.8,25.1c7.9,0.3,13.9,1.9,18,3.5c1.2,0.5,2.3,1,3.2,1.5V6.3
	c-0.9,0.5-2,1-3.2,1.5c-4.1,1.7-10.1,3.3-18,3.5V25.1z M4.6,18.2c0-2,0.8-3.9,2.2-5.4c1.4-1.4,3.3-2.2,5.4-2.2h5.7
	c0.2,0,0.3,0.1,0.3,0.3v14.5c0,0.1,0,0.2-0.1,0.2c-0.1,0.1-0.1,0.1-0.2,0.1h-5.7c-2,0-3.9-0.8-5.4-2.2C5.4,22.1,4.6,20.2,4.6,18.2z"
	/>
</svg>
