<?xml version="1.0" encoding="UTF-8" standalone="no"?>
<!DOCTYPE svg PUBLIC "-//W3C//DTD SVG 1.1//EN" "http://www.w3.org/Graphics/SVG/1.1/DTD/svg11.dtd">
<svg width="100%" height="100%" viewBox="0 0 100 100" version="1.1" xmlns="http://www.w3.org/2000/svg" xmlns:xlink="http://www.w3.org/1999/xlink" xml:space="preserve" xmlns:serif="http://www.serif.com/" style="fill-rule:evenodd;clip-rule:evenodd;stroke-linejoin:round;stroke-miterlimit:2;">
    <g transform="matrix(1.16471,0,0,1.19333,-7.65294,-10.2755)">
        <path d="M76.047,79.847C77.279,80.78 78.507,81.253 79.697,81.253C81.051,81.253 82.226,80.636 83.008,79.515C83.666,78.571 84,77.338 84,75.851L84,54.386L90.702,51.873C91.483,51.58 92,50.834 92,50L92,39C92,38.166 91.483,37.42 90.702,37.127L84,34.614L84,14.412C84,10.688 81.843,9.021 79.706,9.021C78.515,9.021 77.283,9.496 76.047,10.432C76.013,10.458 75.98,10.485 75.947,10.513L59.187,24.975C56.449,27.038 54.03,28 51.58,28L14.914,28C10.624,28 7,31.821 7,36.345L7,53.918C7,58.375 10.55,62 14.914,62L18.249,62L22.018,90.265C22.15,91.258 22.998,92 24,92L40,92C40.576,92 41.125,91.751 41.505,91.317C41.885,90.883 42.059,90.307 41.983,89.735L38.284,62L51.58,62C53.929,62 56.354,63.002 59.208,65.153L75.938,79.759C75.974,79.79 76.01,79.819 76.047,79.847ZM88,40.386L88,48.615L84,50.115L84,38.886L88,40.386ZM11,53.918L11,36.345C11,34.03 12.829,32 14.914,32L45,32L45,58L14.914,58C12.756,58 11,56.169 11,53.918ZM37.716,88L25.751,88L22.284,62L34.249,62L37.716,88ZM61.678,62.005C59.406,60.286 55.889,58 51.58,58L49,58L49,32L51.58,32C54.916,32 58.21,30.732 61.652,28.126C61.686,28.1 61.718,28.073 61.751,28.046L78.509,13.586C79.233,13.049 79.632,13.021 79.697,13.003C79.775,13.07 80,13.474 80,14.412L80,75.851C80,76.814 79.757,77.215 79.73,77.252C79.73,77.252 79.719,77.254 79.697,77.254C79.624,77.254 79.228,77.227 78.512,76.697L61.786,62.093C61.75,62.062 61.715,62.033 61.678,62.005Z" style="fill-rule:nonzero;"/>
    </g>
</svg>
