<?xml version="1.0" encoding="utf-8"?>
<!-- Generator: Adobe Illustrator 25.1.0, SVG Export Plug-In . SVG Version: 6.00 Build 0)  -->
<svg version="1.1" id="Layer_1" xmlns="http://www.w3.org/2000/svg" xmlns:xlink="http://www.w3.org/1999/xlink" x="0px" y="0px"
	 viewBox="0 0 42 47" style="enable-background:new 0 0 42 47;" xml:space="preserve">
<style type="text/css">
	.st0{fill:#D02144;}
</style>
<path class="st0" d="M41.8,36.6V10.4C41.8,4.8,32.2,0,20.9,0S0,4.8,0,10.4v26.1C0,42.2,9.6,47,20.9,47S41.8,42.2,41.8,36.6z
	 M20.9,5.2c9.6,0,15.5,3.9,15.7,5.2c-0.2,1.3-6,5.2-15.7,5.2S5.4,11.7,5.2,10.5C5.4,9.2,11.3,5.2,20.9,5.2z M5.2,17.3
	c3.9,2.2,9.5,3.6,15.7,3.6c6.2,0,11.8-1.4,15.7-3.6v6.2c-0.2,1.3-6,5.2-15.7,5.2S5.4,24.8,5.2,23.5V17.3z M5.2,36.6v-6.2
	c3.9,2.2,9.5,3.6,15.7,3.6c6.2,0,11.8-1.4,15.7-3.6v6.2c-0.2,1.3-6,5.2-15.7,5.2S5.4,37.8,5.2,36.6z"/>
</svg>
