<?xml version="1.0" encoding="UTF-8" standalone="no"?>
<!DOCTYPE svg PUBLIC "-//W3C//DTD SVG 1.1//EN" "http://www.w3.org/Graphics/SVG/1.1/DTD/svg11.dtd">
<svg width="100%" height="100%" viewBox="0 0 100 100" version="1.1" xmlns="http://www.w3.org/2000/svg" xmlns:xlink="http://www.w3.org/1999/xlink" xml:space="preserve" xmlns:serif="http://www.serif.com/" style="fill-rule:evenodd;clip-rule:evenodd;stroke-linejoin:round;stroke-miterlimit:2;">
    <g transform="matrix(1.12993,0,0,1.12993,-6.49673,-6.49673)">
        <path d="M50,5.75C60.669,5.75 70.387,7.311 77.473,9.836C85.595,12.729 90.562,17.082 90.603,22.341L90.603,77.659C90.603,82.877 85.586,87.274 77.473,90.164C70.387,92.689 60.669,94.25 50,94.25C39.331,94.25 29.613,92.689 22.527,90.164C14.414,87.274 9.397,82.877 9.397,77.659L9.397,22.341C9.438,17.082 14.405,12.729 22.527,9.836C29.613,7.311 39.331,5.75 50,5.75ZM50,76.511C38.138,76.511 24.207,74.463 15.998,69.364L15.998,77.659C15.998,79.782 19.33,82.031 24.719,83.95C31.133,86.235 40.068,87.649 50,87.649C59.932,87.649 68.867,86.235 75.281,83.95C80.67,82.031 84.002,79.782 84.002,77.659L84.002,69.364C75.793,74.463 61.862,76.511 50,76.511ZM50,69.91C59.932,69.91 68.867,68.496 75.281,66.211C80.67,64.291 84.002,62.043 84.002,59.921L84.002,50.419C75.793,55.518 61.862,57.566 50,57.566C38.138,57.566 24.207,55.518 15.998,50.419L15.998,59.921C15.998,62.043 19.33,64.291 24.719,66.211C31.133,68.496 40.068,69.91 50,69.91ZM50,50.965C59.932,50.965 68.867,49.551 75.281,47.266C80.67,45.346 84.002,43.098 84.002,40.976L84.002,31.784C75.794,36.883 61.861,38.931 50,38.931C38.139,38.931 24.206,36.883 15.998,31.784L15.998,40.976C15.998,43.098 19.33,45.346 24.719,47.266C31.133,49.551 40.068,50.965 50,50.965ZM50,12.351C40.068,12.351 31.133,13.765 24.719,16.05C13.138,20.176 13.138,24.505 24.718,28.63C31.134,30.916 40.068,32.329 50,32.329C59.932,32.329 68.866,30.916 75.282,28.63C86.862,24.505 86.862,20.176 75.281,16.05C68.867,13.765 59.932,12.351 50,12.351Z"/>
    </g>
</svg>
