<?xml version="1.0" encoding="UTF-8" standalone="no"?>
<!DOCTYPE svg PUBLIC "-//W3C//DTD SVG 1.1//EN" "http://www.w3.org/Graphics/SVG/1.1/DTD/svg11.dtd">
<svg width="100%" height="100%" viewBox="0 0 100 100" version="1.1" xmlns="http://www.w3.org/2000/svg" xmlns:xlink="http://www.w3.org/1999/xlink" xml:space="preserve" xmlns:serif="http://www.serif.com/" style="fill-rule:evenodd;clip-rule:evenodd;stroke-linejoin:round;stroke-miterlimit:2;">
    <g transform="matrix(1.25048,0,0,1.25048,-9.91592,-9.92124)">
        <path d="M31.25,74.137L74.137,31.25L64.583,21.696L21.696,64.583L31.25,74.137ZM45.833,65.446L32.723,78.556L32.024,79.018L11.19,87.351C9.49,88.031 7.802,86.344 8.482,84.643L16.816,63.81L17.277,63.11L30.387,50L8.944,28.556C8.13,27.743 8.13,26.424 8.944,25.61L25.61,8.944C26.424,8.13 27.743,8.13 28.556,8.944L50,30.387L70.223,10.164C72.666,7.721 76.624,7.721 79.061,10.164L85.667,16.771C88.112,19.21 88.112,23.168 85.669,25.611L65.446,45.833L86.89,67.277C87.703,68.09 87.703,69.41 86.89,70.223L70.223,86.89C69.41,87.703 68.09,87.703 67.277,86.89L45.833,65.446ZM48.78,62.5L68.75,82.47L82.47,68.75L77.083,63.363L74.39,66.056C72.426,68.021 69.479,65.074 71.444,63.11L74.137,60.417L68.75,55.03L61.89,61.89C59.926,63.854 56.979,60.908 58.944,58.944L65.804,52.083L62.5,48.78L48.78,62.5ZM33.333,47.054L47.054,33.333L43.75,30.03L41.056,32.723C39.092,34.687 36.146,31.741 38.11,29.777L40.804,27.083L35.417,21.696L28.556,28.556C26.592,30.521 23.646,27.574 25.61,25.61L32.47,18.75L27.083,13.363L13.363,27.083L33.333,47.054ZM27.543,76.322L19.511,68.291L14.156,81.677L27.543,76.322ZM67.53,18.75L77.083,28.304L82.723,22.664C83.538,21.849 83.538,20.532 82.723,19.719L76.112,13.109C75.301,12.295 73.984,12.295 73.169,13.111L67.53,18.75Z" style="fill-rule:nonzero;"/>
    </g>
</svg>
