<?xml version="1.0" encoding="utf-8"?>
<!-- Generator: Adobe Illustrator 25.1.0, SVG Export Plug-In . SVG Version: 6.00 Build 0)  -->
<svg version="1.1" id="Layer_1" xmlns="http://www.w3.org/2000/svg" xmlns:xlink="http://www.w3.org/1999/xlink" x="0px" y="0px"
	 viewBox="0 0 47 47" style="enable-background:new 0 0 47 47;" xml:space="preserve">
<style type="text/css">
	.st0{fill:#D02144;}
</style>
<path class="st0" d="M46.2,11.7c0.2-0.2,0.4-0.5,0.6-0.8c0.1-0.3,0.2-0.6,0.2-1c0-0.3-0.1-0.7-0.2-1c-0.1-0.3-0.3-0.6-0.6-0.8
	L39,0.8c-0.2-0.2-0.5-0.4-0.8-0.6c-0.3-0.1-0.6-0.2-1-0.2c-0.3,0-0.7,0.1-1,0.2c-0.3,0.1-0.6,0.3-0.8,0.6L23.8,12.3l-10-10
	c-2-2-5.3-2-7.3,0L1.6,7.2c-2,2-2,5.3,0,7.3l10,10L0,36.1V47h10.9l11.6-11.6l10,10c2.4,2.4,5.7,1.5,7.3,0l4.9-4.9c2-2,2-5.3,0-7.3
	l-10-10L46.2,11.7L46.2,11.7z M5.3,10.8l4.9-4.9l3.3,3.3l-3,3.1l3.6,3.6l3.1-3.1l3.1,3.1l-4.9,4.9L5.3,10.8L5.3,10.8z M34.2,30
	L31.1,33l3.6,3.6l3.1-3.1l3.3,3.3l-4.9,4.9l-10-10l4.9-4.9L34.2,30L34.2,30z M8.8,41.9H5.1v-3.6l24.7-24.7l3.3,3.3l0.3,0.3L8.8,41.9
	z M33.5,9.8l3.6-3.6l3.6,3.6l-3.6,3.6L33.5,9.8z"/>
</svg>
