<?xml version="1.0" encoding="utf-8"?>
<!-- Generator: Adobe Illustrator 25.1.0, SVG Export Plug-In . SVG Version: 6.00 Build 0)  -->
<svg version="1.1" id="Layer_1" xmlns="http://www.w3.org/2000/svg" xmlns:xlink="http://www.w3.org/1999/xlink" x="0px" y="0px"
	 viewBox="0 0 53 50" style="enable-background:new 0 0 53 50;" xml:space="preserve">
<style type="text/css">
	.st0{fill:#D02144;stroke:#D02144;}
</style>
<path class="st0" d="M46.7,25.5L36.4,15.3L46.7,25.5z M46.7,25.5L36.4,35.8v0c-0.2,0.2-0.4,0.4-0.5,0.7c-0.1,0.3-0.2,0.5-0.2,0.8
	s0.1,0.6,0.2,0.8c0.1,0.3,0.3,0.5,0.5,0.7c0.2,0.2,0.4,0.4,0.7,0.5c0.3,0.1,0.5,0.2,0.8,0.2s0.6-0.1,0.8-0.2s0.5-0.3,0.7-0.5
	l11.8-11.8c0.2-0.2,0.4-0.4,0.5-0.7c0.1-0.3,0.2-0.5,0.2-0.8c0-0.3-0.1-0.6-0.2-0.8c-0.1-0.3-0.3-0.5-0.5-0.7L39.5,12.2c0,0,0,0,0,0
	c-0.2-0.2-0.4-0.4-0.7-0.5c-0.3-0.1-0.5-0.2-0.8-0.2s-0.6,0.1-0.8,0.2c-0.3,0.1-0.5,0.3-0.7,0.5 M46.7,25.5L36.4,12.2 M36.4,12.2
	C36.4,12.2,36.4,12.2,36.4,12.2l0.4,0.4L36.4,12.2z M36.6,12.2c-0.4,0.2-0.5,0.4-0.7,0.7c-0.1,0.3-0.2,0.5-0.2,0.8
	c0,0.3,0.1,0.6,0.2,0.8c0.2,0.7,6,5.8,6.4,6.1L36.6,12.2z M5.8,25.5L16,15.3c0.2-0.2,0.4-0.4,0.5-0.7c0.1-0.3,0.2-0.5,0.2-0.8
	c0-0.3-0.1-0.6-0.2-0.8c-0.1-0.3-0.3-0.5-0.5-0.7c-0.2-0.2-0.4-0.4-0.7-0.5c-0.3-0.1-0.5-0.2-0.8-0.2c-0.3,0-0.6,0.1-0.8,0.2
	c-0.3,0.1-0.5,0.3-0.7,0.5c0,0,0,0,0,0L1.1,24c-0.2,0.2-0.4,0.4-0.5,0.7c-0.1,0.3-0.2,0.5-0.2,0.8c0,0.3,0.1,0.6,0.2,0.8
	c0.1,0.3,0.3,0.5,0.5,0.7c0,0,0,0,0,0l11.8,11.8c0.4,0.4,1,0.6,1.5,0.6c0.6,0,1.1-0.2,1.5-0.6c0.4-0.4,0.6-1,0.6-1.5
	s-0.2-1.1-0.6-1.5l0,0L5.8,25.5z M33.6,1.6l-0.6-0.2v0.1c-0.4,0-0.7,0.1-1,0.3C31.4,2,31,2.5,30.9,3l0,0L17.4,46.7l0,0l0,0
	c-0.1,0.5-0.1,1.1,0.2,1.6c0.3,0.5,0.7,0.9,1.3,1c0.5,0.2,1.1,0.1,1.6-0.1c0.5-0.3,0.9-0.7,1.1-1.2l0,0l0,0L35,4.3c0,0,0,0,0,0
	c0.2-0.6,0.1-1.1-0.2-1.7C34.6,2.1,34.1,1.8,33.6,1.6z"/>
</svg>
