<svg height='100px' width='100px'  fill="#000000" xmlns="http://www.w3.org/2000/svg" xmlns:xlink="http://www.w3.org/1999/xlink" version="1.1" x="0px" y="0px" viewBox="0 0 100 100" style="enable-background:new 0 0 100 100;" xml:space="preserve"><g><path d="M93.8,55.2c-1.3,0-2.6-0.5-3.6-1.5L74.7,38.2c-2-2-2-5.3,0-7.3s5.3-2,7.3,0l15.5,15.5c2,2,2,5.3,0,7.3   C96.5,54.7,95.2,55.2,93.8,55.2z"></path><path d="M78.4,70.6c-1.3,0-2.6-0.5-3.6-1.5c-2-2-2-5.3,0-7.3l15.5-15.5c2-2,5.3-2,7.3,0s2,5.3,0,7.3L82,69.1   C81,70.1,79.7,70.6,78.4,70.6z"></path><path d="M6.2,55.2c-1.3,0-2.6-0.5-3.6-1.5c-2-2-2-5.3,0-7.3L18,30.9c2-2,5.3-2,7.3,0s2,5.3,0,7.3L9.8,53.6   C8.8,54.7,7.5,55.2,6.2,55.2z"></path><path d="M21.6,70.6c-1.3,0-2.6-0.5-3.6-1.5L2.5,53.6c-2-2-2-5.3,0-7.3s5.3-2,7.3,0l15.5,15.5c2,2,2,5.3,0,7.3   C24.3,70.1,23,70.6,21.6,70.6z"></path><path d="M37.1,86.1c-0.7,0-1.3-0.1-2-0.4c-2.6-1.1-3.9-4.1-2.8-6.7l25.8-61.9c1.1-2.6,4.1-3.9,6.7-2.8s3.9,4.1,2.8,6.7L41.9,82.9   C41,84.9,39.1,86.1,37.1,86.1z"></path></g></svg>