<?xml version="1.0" encoding="UTF-8" standalone="no"?>
<!DOCTYPE svg PUBLIC "-//W3C//DTD SVG 1.1//EN" "http://www.w3.org/Graphics/SVG/1.1/DTD/svg11.dtd">
<svg width="100%" height="100%" viewBox="0 0 26 24" version="1.1" xmlns="http://www.w3.org/2000/svg" xmlns:xlink="http://www.w3.org/1999/xlink" xml:space="preserve" xmlns:serif="http://www.serif.com/" style="fill-rule:evenodd;clip-rule:evenodd;stroke-linejoin:round;stroke-miterlimit:2;">
    <g transform="matrix(1,0,0,1,-0.555401,2.04594e-12)">
        <path d="M13.157,0C6.182,-0.003 0.533,5.511 0.533,12.317C0.533,17.698 4.067,22.273 8.988,23.953C9.651,24.116 9.55,23.656 9.55,23.342L9.55,21.207C5.723,21.645 5.567,19.172 5.311,18.759C4.792,17.894 3.565,17.674 3.932,17.261C4.803,16.823 5.692,17.371 6.721,18.855C7.465,19.932 8.918,19.75 9.654,19.571C9.815,18.924 10.159,18.346 10.633,17.897C6.667,17.203 5.015,14.84 5.015,12.03C5.015,10.667 5.474,9.414 6.377,8.403C5.802,6.737 6.43,5.31 6.515,5.098C8.154,4.955 9.857,6.244 9.99,6.346C10.92,6.101 11.984,5.971 13.174,5.971C14.37,5.971 15.436,6.106 16.375,6.354C16.694,6.117 18.273,5.01 19.796,5.145C19.878,5.357 20.492,6.751 19.951,8.395C20.865,9.408 21.33,10.673 21.33,12.039C21.33,14.853 19.666,17.219 15.689,17.902C16.03,18.229 16.301,18.62 16.485,19.05C16.67,19.48 16.764,19.942 16.764,20.409L16.764,23.507C16.787,23.755 16.764,24 17.187,24C22.182,22.356 25.778,17.748 25.778,12.32C25.778,5.511 20.126,0 13.157,0Z" style="fill:rgb(24,23,23);fill-rule:nonzero;"/>
    </g>
</svg>
