<svg width="60" height="60" viewBox="0 0 60 60" fill="none" xmlns="http://www.w3.org/2000/svg">
<path d="M16.4455 10.7727L6.79091 20.4273C-2.26364 29.4818 -2.26364 44.1545 6.79091 53.2091C15.8455 62.2636 30.5182 62.2636 39.5727 53.2091L55.9636 36.8182C56.674 36.099 57.2167 35.2319 57.5531 34.2787C57.8895 33.3256 58.0112 32.3099 57.9096 31.3042C57.808 30.2985 57.4855 29.3277 56.9653 28.4611C56.445 27.5945 55.7398 26.8534 54.9 26.2909L55.9636 25.2273C58.6091 22.5818 58.6091 18.2455 55.9636 15.5727C55.5273 15.1364 55.0091 14.7545 54.4909 14.4545C55.0903 13.0934 55.2277 11.5734 54.8819 10.1268C54.5362 8.68026 53.7264 7.38666 52.5762 6.44366C51.4261 5.50066 49.9988 4.96012 48.5126 4.90463C47.0263 4.84914 45.5627 5.28175 44.3455 6.13636C43.7905 5.28158 43.0522 4.56109 42.1841 4.02719C41.316 3.49329 40.3399 3.15938 39.3267 3.0497C38.3135 2.94002 37.2885 3.05733 36.3263 3.3931C35.3641 3.72887 34.4887 4.27468 33.7636 4.99091L26.9182 11.8364C26.3625 10.9961 25.6272 10.2898 24.7652 9.76857C23.9032 9.24732 22.9361 8.92411 21.9339 8.82233C20.9317 8.72054 19.9194 8.84272 18.9703 9.18003C18.0211 9.51734 17.1587 10.0613 16.4455 10.7727V10.7727ZM20.2909 14.6455C20.8364 14.1 21.6818 14.1 22.2273 14.6455C22.7727 15.1909 22.7727 16.0364 22.2273 16.5818L13.5545 25.2545C15.0867 26.7886 15.9473 28.8682 15.9473 31.0364C15.9473 33.2046 15.0867 35.2841 13.5545 36.8182L17.4 40.6636C19.2745 38.7874 20.5617 36.4056 21.1042 33.8094C21.6467 31.2133 21.4209 28.5153 20.4545 26.0455L37.6364 8.86364C38.1818 8.31818 39.0273 8.31818 39.5727 8.86364C40.1182 9.40909 40.1182 10.2545 39.5727 10.8L27.0273 23.3455L30.8727 27.1909L47.2636 10.8C47.8091 10.2545 48.6545 10.2545 49.2 10.8C49.7455 11.3455 49.7455 12.1909 49.2 12.7364L32.8091 29.1273L36.6545 32.9727L50.1545 19.4727C50.7 18.9273 51.5455 18.9273 52.0909 19.4727C52.6364 20.0182 52.6364 20.8636 52.0909 21.4091L36.6545 36.8455L40.5 40.6909L50.1545 31.0364C50.7 30.4909 51.5455 30.4909 52.0909 31.0364C52.6364 31.5818 52.6364 32.4273 52.0909 32.9727L35.7273 49.3636C28.8 56.2909 17.5909 56.2909 10.6636 49.3636C3.73636 42.4364 3.73636 31.2273 10.6636 24.3L20.2909 14.6455V14.6455ZM60 43.6364C60 52.6636 52.6636 60 43.6364 60V55.9091C50.4 55.9091 55.9091 50.4 55.9091 43.6364H60ZM0 16.3636C0 7.33636 7.33636 0 16.3636 0V4.09091C9.6 4.09091 4.09091 9.6 4.09091 16.3636H0Z" fill="#CF2045"/>
</svg>
