<?xml version="1.0" encoding="UTF-8" standalone="no"?>
<!DOCTYPE svg PUBLIC "-//W3C//DTD SVG 1.1//EN" "http://www.w3.org/Graphics/SVG/1.1/DTD/svg11.dtd">
<svg width="100%" height="100%" viewBox="0 0 528 512" version="1.1" xmlns="http://www.w3.org/2000/svg" xmlns:xlink="http://www.w3.org/1999/xlink" xml:space="preserve" xmlns:serif="http://www.serif.com/" style="fill-rule:evenodd;clip-rule:evenodd;stroke-linejoin:round;stroke-miterlimit:2;">
    <g transform="matrix(1,0,0,1,0.0658554,0.0145994)">
        <path d="M99,414.3C100.1,420 96.7,425.4 91,426.6C85.6,427.7 80.1,424.3 79,418.6C77.9,413.2 81.3,407.5 86.7,406.3C92.1,405.1 97.8,408.6 99,414.3ZM242.1,485.7C235.8,490.3 234.1,499.1 238.4,505.7C243,512.3 251.8,514 258.4,509.4C264.7,504.8 266.4,496 261.8,489.4C257.6,482.9 248.7,481.1 242.1,485.7ZM156.1,23.4C162.4,22 166.4,15.7 165,9.4C163.9,2.8 157.6,-1.2 151.3,0.3C145,1.7 141,8 142.2,14.3C143.6,20.9 149.8,24.9 156.1,23.4ZM34.4,226.3C24.4,219.4 10.7,222 3.8,232.3C-3.1,242.3 -0.5,256.3 9.5,263.2C19.5,270.3 33.2,267.8 40.1,257.5C47,247.1 44.4,233.4 34.4,226.3ZM306.4,55.4C317,49.1 320.1,35.4 314.1,25.1C307.8,14.5 294.4,11.1 284.1,17.4C273.8,23.7 270.4,37.4 276.7,48C282.7,58.3 296.1,61.7 306.4,55.4ZM115.3,113.4C123,108 124.7,97.4 119.6,89.7C114.5,82 103.9,80.3 96.5,85.4C88.8,90.8 87.1,101.4 92.2,109.1C97.3,116.9 107.8,118.6 115.3,113.4ZM487.6,269.4C480.2,271.1 475.3,278.5 477,286.3C478.4,293.7 485.9,298.6 493.3,296.9C500.7,295.5 505.6,288 503.9,280.3C502.4,272.9 495,268 487.6,269.4ZM527.3,212.6C526.2,206.9 520.7,203.5 515.3,204.6C509.6,205.7 506.2,211.5 507.3,217.2C508.4,222.6 513.9,226.3 519.6,225.2C525,223.7 528.7,218.3 527.3,212.6ZM447,138.9C438.4,144.9 436.4,156.6 442.1,165.2C447.8,173.8 459.5,175.8 468.1,170.1C476.4,164.1 478.4,152.4 472.7,143.8C467,135.1 455.3,132.9 447,138.9ZM440.7,278.3C467,321.4 455.8,378.3 414.4,407.4C397,419.7 377.3,425.1 357.5,424.5C345.5,471.6 288.1,489.1 252.4,457.1C251.3,458 249.8,458.8 248.7,460C209.6,487.1 156.4,477.4 129.3,437.7C119.6,423.4 114.7,407.1 114.2,390.8C48.8,379.9 24.2,296.8 73.1,251.1C44.8,204.2 73.7,143.7 126.5,136.2C151.6,70 234.1,38.6 290.1,82C357.5,59.7 426.4,111.4 421,183.1C462.1,195.7 473.8,250 440.7,278.3ZM370.7,352.6C367.6,332 329.8,348 327.6,325.5C324.5,293.5 371.3,224.4 367.6,197.5C364.2,173.5 348.2,168.4 334.2,168.1C320.8,167.8 317.3,170.1 312.8,172.7C309.9,174.4 306.2,177.6 301.1,172.4C294.8,166.4 290,160.7 281.7,159.5C269.4,157.5 264,161.5 255.1,169.2C251.7,172.1 243.1,182.1 235.1,178.3C231.7,176.6 219.7,170.6 211.1,166.9C194.8,159.8 171.1,171.5 162.5,186.9C149.6,209.8 124.5,300 120.8,312C112.2,338.6 131.7,360.6 157.7,359.1C168.8,358.5 176,354.5 183.1,341.7C187.1,334.3 224.8,234 227.7,229.1C229.7,225.7 236.6,221.1 242.3,224C248,227.1 249.2,233.4 248.3,239.1C247.2,248.8 220.3,310 219.4,316.8C216,339.7 246.3,343.4 258,320.8C261.7,313.7 303.7,228.2 307.4,222.5C311.7,216.2 314.8,214.2 319.1,214.5C322.2,214.5 327.4,215.4 326.2,225.4C324.8,234.8 291.1,297.7 287.3,313.1C282.7,333.7 293.9,354.5 312.2,363.7C323.6,369.4 374.7,379.4 370.7,352.6ZM376.4,444.9C366.1,452.3 363.5,466.9 370.7,477.5C377.8,488.1 392.1,490.6 402.7,483.5C413.3,476.1 415.8,461.5 408.7,450.9C401.3,440.3 387,437.4 376.4,444.9Z" style="fill:rgb(246,64,96);fill-rule:nonzero;"/>
    </g>
</svg>
