<svg width="40" height="40" viewBox="0 0 40 40" fill="none" xmlns="http://www.w3.org/2000/svg">
<path d="M3.35578 38C3.35072 37.9997 3.34291 37.9993 3.3326 37.9986C3.29462 37.9959 3.22732 37.9895 3.1413 37.9751C2.95978 37.9449 2.74833 37.8881 2.56109 37.7945C2.38169 37.7048 2.26312 37.6016 2.18493 37.4843C2.11509 37.3796 2 37.15 2 36.6667C2 35.5135 2.63442 32.694 5.16421 30.1642C7.63539 27.693 12.0884 25.3333 20 25.3333C27.9115 25.3333 32.3646 27.693 34.8358 30.1642C37.3656 32.694 38 35.5135 38 36.6667C38 37.15 37.8849 37.3796 37.8151 37.4843C37.7369 37.6016 37.6183 37.7048 37.4389 37.7945C37.2517 37.8881 37.0402 37.9449 36.8587 37.9751C36.7727 37.9895 36.7054 37.9959 36.6674 37.9986C36.6571 37.9993 36.6493 37.9997 36.6442 38H3.35578ZM25.6569 15.6569C24.1566 17.1571 22.1217 18 20 18C17.8783 18 15.8434 17.1571 14.3431 15.6569C12.8429 14.1566 12 12.1217 12 10C12 7.87827 12.8429 5.84344 14.3431 4.34315C15.8434 2.84285 17.8783 2 20 2C22.1217 2 24.1566 2.84285 25.6569 4.34315C27.1571 5.84344 28 7.87827 28 10C28 12.1217 27.1571 14.1566 25.6569 15.6569Z" stroke="#CF2045" stroke-width="4"/>
</svg>
