<?xml version="1.0" encoding="UTF-8" standalone="no"?>
<!DOCTYPE svg PUBLIC "-//W3C//DTD SVG 1.1//EN" "http://www.w3.org/Graphics/SVG/1.1/DTD/svg11.dtd">
<svg width="100%" height="100%" viewBox="0 0 100 100" version="1.1" xmlns="http://www.w3.org/2000/svg" xmlns:xlink="http://www.w3.org/1999/xlink" xml:space="preserve" xmlns:serif="http://www.serif.com/" style="fill-rule:evenodd;clip-rule:evenodd;stroke-linejoin:round;stroke-miterlimit:2;">
    <g transform="matrix(1.07915,0,0,1.07915,-0.264021,-0.16244)">
        <g transform="matrix(1.08217,0,0,1.08217,-7.53131,-7.62544)">
            <path d="M58.5,82L41.9,82C39.7,82 37.9,80.2 37.9,78L37.9,75.3C37.9,73.7 37.2,72.8 34.8,70.5C31.1,66.8 26,61.6 26,48.8C26,35.6 36.8,24.8 50,24.8C63.2,24.8 74,35.6 74,48.8C74,61.5 69.1,66.6 65.5,70.3C63.2,72.7 62.5,73.6 62.5,75.3L62.5,78C62.5,80.2 60.7,82 58.5,82ZM45.8,74L54.6,74C55,69.7 57.5,67.1 59.8,64.7C62.9,61.5 66.1,58.2 66.1,48.7C66.1,39.9 58.9,32.7 50.1,32.7C41.3,32.7 34.1,39.9 34.1,48.7C34.1,58.2 37.4,61.6 40.6,64.8C42.8,67.1 45.4,69.7 45.8,74Z" style="fill:#CF2045;fill-rule:nonzero;"/>
        </g>
        <g transform="matrix(1.08217,0,0,1.08217,-7.53131,-7.62544)">
            <path d="M52.4,62.5L47.6,62.5C45.4,62.5 43.6,60.7 43.6,58.5C43.6,56.3 45.4,54.5 47.6,54.5L52.4,54.5C54.6,54.5 56.4,56.3 56.4,58.5C56.4,60.7 54.6,62.5 52.4,62.5Z" style="fill:#CF2045;fill-rule:nonzero;"/>
        </g>
        <g transform="matrix(1.08217,0,0,1.08217,-7.53131,-7.62544)">
            <path d="M57.3,92.8L42.7,92.8C40.5,92.8 38.7,91 38.7,88.8C38.7,86.6 40.5,84.8 42.7,84.8L57.2,84.8C59.4,84.8 61.2,86.6 61.2,88.8C61.2,91 59.5,92.8 57.3,92.8Z" style="fill:#CF2045;fill-rule:nonzero;"/>
        </g>
        <g transform="matrix(1.08217,0,0,1.08217,-7.53131,-7.62544)">
            <path d="M50,20.7C47.8,20.7 46,18.9 46,16.7L46,11.2C46,9 47.8,7.2 50,7.2C52.2,7.2 54,9 54,11.2L54,16.7C54,18.9 52.2,20.7 50,20.7Z" style="fill:#CF2045;fill-rule:nonzero;"/>
        </g>
        <g transform="matrix(1.08217,0,0,1.08217,-7.53131,-7.62544)">
            <path d="M27.9,27.7C26.6,27.7 25.3,27.1 24.6,25.9L21.6,21.4C20.4,19.6 20.9,17.1 22.7,15.9C24.5,14.7 27,15.2 28.2,17L31.2,21.5C32.4,23.3 31.9,25.8 30.1,27C29.4,27.5 28.6,27.7 27.9,27.7Z" style="fill:#CF2045;fill-rule:nonzero;"/>
        </g>
        <g transform="matrix(1.08217,0,0,1.08217,-7.53131,-7.62544)">
            <path d="M17.4,45.2C17,45.2 16.6,45.1 16.2,45L11.2,43.5C9.1,42.9 7.9,40.6 8.5,38.5C9.1,36.4 11.4,35.2 13.5,35.8L18.5,37.3C20.6,37.9 21.8,40.2 21.2,42.3C20.7,44.1 19.1,45.2 17.4,45.2Z" style="fill:#CF2045;fill-rule:nonzero;"/>
        </g>
        <g transform="matrix(1.08217,0,0,1.08217,-7.53131,-7.62544)">
            <path d="M72.1,27.7C71.3,27.7 70.6,27.5 69.9,27C68.1,25.8 67.6,23.3 68.8,21.5L71.8,17C73,15.2 75.5,14.7 77.3,15.9C79.1,17.1 79.6,19.6 78.4,21.4L75.4,25.9C74.7,27.1 73.4,27.7 72.1,27.7Z" style="fill:#CF2045;fill-rule:nonzero;"/>
        </g>
        <g transform="matrix(1.08217,0,0,1.08217,-7.53131,-7.62544)">
            <path d="M82.6,45.2C80.9,45.2 79.3,44.1 78.8,42.3C78.2,40.2 79.4,38 81.5,37.3L86.5,35.8C88.6,35.2 90.8,36.4 91.5,38.5C92.1,40.6 90.9,42.8 88.8,43.5L83.8,45C83.4,45.1 83,45.2 82.6,45.2Z" style="fill:#CF2045;fill-rule:nonzero;"/>
        </g>
    </g>
</svg>
