<?xml version="1.0" encoding="utf-8"?>
<!-- Generator: Adobe Illustrator 25.1.0, SVG Export Plug-In . SVG Version: 6.00 Build 0)  -->
<svg version="1.1" id="Layer_1" xmlns="http://www.w3.org/2000/svg" xmlns:xlink="http://www.w3.org/1999/xlink" x="0px" y="0px"
	 viewBox="0 0 36 49" style="enable-background:new 0 0 36 49;" xml:space="preserve">
<style type="text/css">
	.st0{fill:#D02144;stroke:#D02144;stroke-miterlimit:10;}
	.st1{fill:#D02144;stroke:#D02144;}
</style>
<path class="st0" d="M9.5,37.9h16.8v3.4H9.5V37.9z"/>
<path class="st1" d="M12.9,44.1h-0.5v0.5V48v0.5h0.5h10.1h0.5V48v-3.4v-0.5h-0.5H12.9z"/>
<path class="st1" d="M26.8,34.6c0-1.3,0.7-2,2.4-3.6c2-1.6,3.5-3.6,4.6-5.9c1-2.3,1.5-4.8,1.4-7.3c0-2.3-0.4-4.5-1.3-6.6
	c-0.9-2.1-2.1-4-3.7-5.6c-1.6-1.6-3.5-2.9-5.6-3.7c-2.1-0.9-4.3-1.3-6.6-1.3c-4.6,0-9,1.8-12.2,5.1c-3.2,3.2-5.1,7.6-5.1,12.2
	c-0.1,2.5,0.4,5,1.4,7.3c1,2.3,2.6,4.3,4.6,5.9C8.3,32.5,9,33.3,9,34.6v0.5h0.5h3.4h0.5v-0.5c0-3.3-2-5.2-3.8-6.8l0,0l0,0l0,0
	C8,26.5,6.8,25,6,23.3c-0.8-1.7-1.1-3.6-1-5.5l0,0v0c0-3.4,1.4-6.7,3.8-9.1c2.4-2.4,5.7-3.8,9.1-3.8s6.7,1.4,9.1,3.8
	s3.8,5.7,3.8,9.1v0l0,0c0.1,1.9-0.2,3.8-1,5.5c-0.8,1.7-2,3.2-3.5,4.4l0,0l0,0c0,0-0.1,0.1-0.1,0.1c-1.7,1.6-3.7,3.4-3.7,6.7v0.5
	h0.5h3.4h0.5V34.6z"/>
</svg>
