<svg height='100px' width='100px'  fill="#000000" xmlns="http://www.w3.org/2000/svg" viewBox="0 0 24 24" enable-background="new 0 0 24 24" x="0px" y="0px"><g><path d="M21.496 24h-18.992c-1.38 0-2.504-1.123-2.504-2.504v-16.991c0-1.381 1.124-2.505 2.505-2.505h18.99c1.381 0 2.505 1.124 2.505 2.505v16.991c0 1.381-1.123 2.504-2.504 2.504zm-18.991-20c-.278 0-.505.227-.505.505v16.991c0 .278.226.504.504.504h18.992c.278 0 .504-.226.504-.504v-16.991c0-.278-.227-.505-.505-.505h-18.99zM23 8h-22c-.552 0-1-.448-1-1s.448-1 1-1h22c.553 0 1 .448 1 1s-.447 1-1 1zM5 5c-.552 0-1-.448-1-1v-3c0-.552.448-1 1-1s1 .448 1 1v3c0 .552-.448 1-1 1zM19 5c-.553 0-1-.448-1-1v-3c0-.552.447-1 1-1s1 .448 1 1v3c0 .552-.447 1-1 1z"></path><circle cx="6" cy="19" r="1"></circle><circle cx="6" cy="15" r="1"></circle><circle cx="9" cy="19" r="1"></circle><circle cx="9" cy="15" r="1"></circle><circle cx="9" cy="11" r="1"></circle><circle cx="15" cy="19" r="1"></circle><circle cx="15" cy="15" r="1"></circle><circle cx="15" cy="11" r="1"></circle><circle cx="18" cy="15" r="1"></circle><circle cx="18" cy="11" r="1"></circle><circle cx="12" cy="19" r="1"></circle><circle cx="12" cy="15" r="1"></circle><circle cx="12" cy="11" r="1"></circle></g></svg>