<svg width="60" height="60" viewBox="0 0 60 60" fill="none" xmlns="http://www.w3.org/2000/svg">
<path d="M30 0C13.4326 0 0 13.4375 0 30C0 46.5722 13.4326 60 30 60C46.5674 60 60 46.5722 60 30C60 13.4375 46.5674 0 30 0ZM30 54.1935C16.6292 54.1935 5.80645 43.3753 5.80645 30C5.80645 16.6337 16.6297 5.80645 30 5.80645C43.3658 5.80645 54.1935 16.6296 54.1935 30C54.1935 43.3706 43.3753 54.1935 30 54.1935ZM42.9731 23.3226C42.9731 31.4337 34.2125 31.5585 34.2125 34.556V35.3226C34.2125 36.1242 33.5625 36.7742 32.7608 36.7742H27.239C26.4374 36.7742 25.7874 36.1242 25.7874 35.3226V34.2751C25.7874 29.9511 29.0656 28.2226 31.5429 26.8337C33.6673 25.6427 34.9692 24.8327 34.9692 23.2556C34.9692 21.1694 32.3081 19.7846 30.1567 19.7846C27.3515 19.7846 26.0566 21.1125 24.2362 23.4099C23.7455 24.0293 22.85 24.1443 22.2202 23.6669L18.8544 21.1147C18.2366 20.6463 18.0982 19.776 18.5346 19.1353C21.3927 14.9384 25.0331 12.5806 30.7009 12.5806C36.6369 12.5806 42.9731 17.2142 42.9731 23.3226V23.3226ZM35.0806 43.5484C35.0806 46.3499 32.8015 48.629 30 48.629C27.1985 48.629 24.9194 46.3499 24.9194 43.5484C24.9194 40.7469 27.1985 38.4677 30 38.4677C32.8015 38.4677 35.0806 40.7469 35.0806 43.5484Z" fill="#CF2045"/>
</svg>
