<svg id="Layer_1" data-name="Layer 1" xmlns="http://www.w3.org/2000/svg" viewBox="0 0 610.53 371.28">
  <g id="C4C-Logo">
    <path d="M224,558.26l12.54,2.93,3.64-12,3.1,12,11.8-2.66-8,8.35,8.37,8.79L243.29,573l-3,11.83-3.7-12-12,2.92,8.35-8.92Z" transform="translate(-1.03 -220.43)" fill="#fff" stroke="#fff" stroke-miterlimit="12.75" stroke-width="1.28"/>
    <path d="M267.58,554.62l-10.76,11.29a1.61,1.61,0,0,0,0,2.25q5.37,5.67,10.76,11.33c1.41,1.49,3.66-.76,2.25-2.25q-5.38-5.67-10.76-11.33v2.25l10.76-11.29c1.41-1.48-.83-3.74-2.25-2.25" transform="translate(-1.03 -220.43)" fill="#fff"/>
    <path d="M277.44,579.49q5.37-5.64,10.75-11.29a1.61,1.61,0,0,0,0-2.25l-10.75-11.33c-1.42-1.49-3.67.76-2.26,2.25q5.38,5.67,10.76,11.33V566l-10.76,11.29c-1.41,1.48.84,3.74,2.26,2.25" transform="translate(-1.03 -220.43)" fill="#fff"/>
  </g>
  <g id="Skyline-Left-Right">
    <path d="M50.92,590.43l-3.17-51.62a2.73,2.73,0,0,0-2.52-2.17l-27.34,2.14a2.11,2.11,0,0,0-2,2.11v49.54Z" transform="translate(-1.03 -220.43)" fill="none" stroke="#fff" stroke-miterlimit="12.75" stroke-width="2.55"/>
    <path d="M23.42,549.22c4.65.49,9.16,1.65,13.84.73.48-.1,1.16-.41.7-1a2.58,2.58,0,0,0-2.13-.55c-4.12.82-8.12-.29-12.22-.73-.45,0-1.57-.09-1.67.55s1.09.91,1.48,1" transform="translate(-1.03 -220.43)" fill="#fff"/>
    <path d="M39.8,555.92c-5,0-9.95-.18-14.93-.23,0,.62,0,1.25-.07,1.88a73.64,73.64,0,0,1,8.65-.48l4.24-.06h.67a2.72,2.72,0,0,0,.49.05c-.1,0-.07,0,.07,0a.42.42,0,0,1-.27-.33c.09.17-.2.28.18,0,.21-.16.15,0-.09,0,.4,0,0,0-.09,0l-.69,0c-1.38,0-2.76,0-4.14,0a51.78,51.78,0,0,1-8.34-.81,2.18,2.18,0,0,0-2.07.74c-.4.65.23,1,.8,1.15a56.15,56.15,0,0,0,8.08.82c1.38.05,2.76.06,4.15,0a15.21,15.21,0,0,0,2.86-.16A3.07,3.07,0,0,0,41.67,557c.35-.9-.22-1.44-1.05-1.67a9.09,9.09,0,0,0-2.44-.2l-4.08.07a81.8,81.8,0,0,0-9.65.57c-.52.07-1.38.48-1.38,1.1s.82.78,1.31.79c5,0,10,.22,14.93.23.6,0,1.65-.32,1.8-1s-.8-.92-1.31-.92" transform="translate(-1.03 -220.43)" fill="#fff"/>
    <path d="M24,550.44a57.45,57.45,0,0,0,8.48.74c1.37,0,2.75.05,4.13,0a3.78,3.78,0,0,0,3-1.08c.25-.3-.32-.88-.48-1a3.12,3.12,0,0,0-1.51-.87,88.13,88.13,0,0,0-15.06-.54c-.71,0-.28.76,0,1a3,3,0,0,0,1.94,1,84.63,84.63,0,0,1,14.5.47c-.67-.63-1.34-1.26-2-1.9-.69.84-1.83.79-2.82.79-1.3,0-2.6,0-3.9,0a54.34,54.34,0,0,1-7.65-.66c-.6-.11-.83.22-.51.74A3.09,3.09,0,0,0,24,550.44" transform="translate(-1.03 -220.43)" fill="#fff"/>
    <path d="M45.63,497.34l-2.94-37.68A1.74,1.74,0,0,0,41,458.05l-29.14-.21A4.88,4.88,0,0,0,7,462l-.19,5.37" transform="translate(-1.03 -220.43)" fill="none" stroke="#fff" stroke-miterlimit="12.75" stroke-width="2.55"/>
    <path d="M14.77,468.08l17.38.68a2.75,2.75,0,0,0,2-1c.27-.32.66-1.09-.07-1.12l-17.38-.68a2.71,2.71,0,0,0-1.95,1c-.27.32-.66,1.09.07,1.12" transform="translate(-1.03 -220.43)" fill="#fff"/>
    <path d="M14.47,476.15l16.27.76c.42,0-.19-1-.27-1.15-.18-.32-.79-1.49-1.26-1.51l-16.27-.77c-.42,0,.19,1,.27,1.15.19.33.79,1.5,1.26,1.52" transform="translate(-1.03 -220.43)" fill="#fff"/>
    <path d="M50.92,590.43,47.63,532.5c-.08-1.26,1.9-3.37,3.16-3.37h5.68A3.14,3.14,0,0,0,59.61,526V514.87a1.78,1.78,0,0,1,1.77-1.78h7.15a1.77,1.77,0,0,1,1.77,1.77v10.25a4.6,4.6,0,0,0,1.23,3.13c1.83,2,5.17,5.48,6.13,5.8,1.33.44,4.23,5.34,4.23,5.34l5.74-.48a2.88,2.88,0,0,0,2.62-2.45l1.22-8.21s1.78-3.56,4.23-3.56c1.68,0,5.74.1,8.15.17a1.92,1.92,0,0,1,1.88,1.93v63.65" transform="translate(-1.03 -220.43)" fill="none" stroke="#fff" stroke-miterlimit="12.75" stroke-width="2.55"/>
    <path d="M50.92,590.43l-5.46-96a2.15,2.15,0,0,0-2.15-2l-34.48-.24a3.14,3.14,0,0,0-3.09,2.63l-.3,9.92" transform="translate(-1.03 -220.43)" fill="none" stroke="#fff" stroke-miterlimit="12.75" stroke-width="2.55"/>
    <path d="M20.59,504.94c5.91-.72,12.52,1.67,17.9-1.82.25-.17-1.75-2.53-2.39-2.12-5.27,3.42-11.86,1-17.68,1.75-.46.06.43,1,.53,1.09.31.32,1.1,1.17,1.64,1.1" transform="translate(-1.03 -220.43)" fill="#fff"/>
    <path d="M21.6,511.05a155.54,155.54,0,0,0,18.57.66,8.48,8.48,0,0,0-.88-1.35c-.26-.29-.79-1-1.24-1a152.79,152.79,0,0,1-18.4-.66c-.33,0,.46,1,.52,1,.27.33.94,1.31,1.43,1.35" transform="translate(-1.03 -220.43)" fill="#fff"/>
    <path d="M41,515.45c-6.5-.71-12.9,1-19.39,1a.94.94,0,0,0-.95,1.26c.3.75,1.28,1,2,1,6.21,0,12.38-1.7,18.6-1,.62.07,1.48-.21,1.43-1s-1-1.19-1.68-1.27" transform="translate(-1.03 -220.43)" fill="#fff"/>
    <path d="M67.41,590.43,66,554.19a2.48,2.48,0,0,1,2.33-2.57L93,550.22a2.49,2.49,0,0,1,2.63,2.34l2.3,37.87" transform="translate(-1.03 -220.43)" fill="none" stroke="#fff" stroke-miterlimit="12.75" stroke-width="2.55"/>
    <path d="M75.92,565c3.8-.3,7.59-.61,11.39-.9-.55-.81-1.11-1.61-1.66-2.41-.08.26-.05.08,0,0l-.22.13a2.74,2.74,0,0,1-.86.09c-.86,0-1.72,0-2.58,0l-5.29,0c-.78,0-.77,1.12-.6,1.61A1.81,1.81,0,0,0,77.73,565l6-.05c1.38,0,3.73.35,4.25-1.38.3-1-.52-2.5-1.65-2.41L74.9,562c-1.52.12-.35,3.06,1,3" transform="translate(-1.03 -220.43)" fill="#fff"/>
    <path d="M77.93,572.73l8.19-.28-1.35-2.32a1.31,1.31,0,0,1-.23.06l-.51.11c-.3.06-.6.1-.9.14s-.65.08-1,.1l-.45,0c.26,0-.16,0-.21,0a15.84,15.84,0,0,1-1.81-.11l-.45-.06c-.07,0-.46-.07-.17,0-.35-.06-.7-.14-1-.23-.65-.16-1.63-.06-1.85.71s.56,1.41,1.21,1.57a17.88,17.88,0,0,0,9.1-.07,1,1,0,0,0,.55-1.47,2,2,0,0,0-1.9-.85l-8.19.28a1.05,1.05,0,0,0-1,1.4,2,2,0,0,0,2,1" transform="translate(-1.03 -220.43)" fill="#fff"/>
    <path d="M77.48,574.13l8-.43c.7,0,1.49-.72,1.29-1.48A1.69,1.69,0,0,0,85,571.08l-8,.43c-.71,0-1.49.72-1.3,1.48a1.7,1.7,0,0,0,1.84,1.14" transform="translate(-1.03 -220.43)" fill="#fff"/>
    <path d="M78.55,579.07c3.35-.09,6.69-.09,10,0l-1.19-1.54a.91.91,0,0,1,.21-.18c.19-.14.2-.16,0-.05l.11,0-.12,0-.85,0H78.08c-.06,0-.52,0-.29,0-.17,0-.2,0-.1,0l-.63,1.32s.54,0,.46,0l2.67.22,5.34.44a2,2,0,0,0,2-1.06,1.06,1.06,0,0,0-.81-1.53l-7.53-.61c-1.41-.12-2.91-.22-3.84,1.09a1.66,1.66,0,0,0,1.12,2.69,19.68,19.68,0,0,0,3.52.06h3.9c2.14,0,5.22.46,6.32-1.91.44-.94-.33-1.52-1.18-1.54q-5-.15-10,0a1.87,1.87,0,0,0-1.72,1.42c-.12.8.58,1.22,1.29,1.2" transform="translate(-1.03 -220.43)" fill="#fff"/>
    <path d="M2.31,590.43,7,462l4.11-13.54A3.69,3.69,0,0,1,13.61,446l4.3-1.27a2.86,2.86,0,0,0,2-2.31l1.35-8.78a3.76,3.76,0,0,1,1.59-2.54l3.46-2.4a3,3,0,0,0,1.29-2.45L27.33,383a35.69,35.69,0,0,1,2.25-10.5,40.63,40.63,0,0,1,3.85-7.29c3-4.91,6-8.66,7.57-9.47,4.85-2.58,1.23,4.62,2.06,8.13.64,2.66,6.59,19.38,9.87,20.32,2.93.84,3.24,40.09,3.28,48.56a2.67,2.67,0,0,0,1.49,2.39,20.21,20.21,0,0,0,6.7,2.05c2.84.28,0,75.91,0,75.91" transform="translate(-1.03 -220.43)" fill="none" stroke="#fff" stroke-miterlimit="12.75" stroke-width="2.55"/>
    <path d="M39.39,402.34h5.34c.59,0,1.51-.47,1.29-1.19a1.81,1.81,0,0,0-1.84-1H38.83c-.59,0-1.5.47-1.28,1.19a1.8,1.8,0,0,0,1.84,1" transform="translate(-1.03 -220.43)" fill="#fff"/>
    <path d="M37.84,410.26a48.49,48.49,0,0,1,7.13.17,1.93,1.93,0,0,0,1.87-1.2c.2-.79-.42-1.15-1.11-1.22a49.91,49.91,0,0,0-7.13-.17c-.72,0-1.68.42-1.87,1.2a1,1,0,0,0,1.11,1.22" transform="translate(-1.03 -220.43)" fill="#fff"/>
    <path d="M81.89,539.38s-5.57-9.8-5.79-12.25c-.17-1.84-.09-18.05,0-26.07a5.92,5.92,0,0,1,4.32-5.66,3.92,3.92,0,0,0,2.85-3.76V393a2.51,2.51,0,0,1,1.35-2.23l3.71-1.92a1.74,1.74,0,0,0,.93-1.57l-1.47-67a4.93,4.93,0,0,1,2.84-4.57l2-.91a5.7,5.7,0,0,0,3.28-5.28l-.95-46.07a3.66,3.66,0,0,1,2.86-3.64l3-.64a6.82,6.82,0,0,0,5.22-4.88,3.11,3.11,0,0,1,3-2.28h10a2.26,2.26,0,0,1,2.25,2.17l2.26,55.28a6,6,0,0,0,5.09,5.71l4,.62a4.81,4.81,0,0,1,4.08,4.63l1.81,64.23a3.78,3.78,0,0,0,3.09,3.61l4.25.79a2.93,2.93,0,0,1,2.37,2.81l2.19,126.56" transform="translate(-1.03 -220.43)" fill="none" stroke="#fff" stroke-miterlimit="12.75" stroke-width="2.55"/>
    <path d="M111.78,252V221.54a1.15,1.15,0,0,0-2.3,0V252a1.15,1.15,0,0,0,2.3,0" transform="translate(-1.03 -220.43)" fill="#fff"/>
    <path d="M118.91,252V221.54a1.15,1.15,0,0,0-2.3,0V252a1.15,1.15,0,0,0,2.3,0" transform="translate(-1.03 -220.43)" fill="#fff"/>
    <path d="M100.94,524.77l6.87-3.23a8.56,8.56,0,0,1,3.6-.8,4.66,4.66,0,0,0,4.65-4.42l2.3-45.27a14.87,14.87,0,0,1,1.45-5.7c2-4.25,6.11-12,9.09-13.24s8.64,2.19,11.78,4.35a5.06,5.06,0,0,1,2.19,4.15v54.67a3.08,3.08,0,0,0,3.08,3.08h7.65a7,7,0,0,0,6.47-4.38l3.27-8.18a12.72,12.72,0,0,0,.92-4.76V424.82a3.39,3.39,0,0,1,3.2-3.39c5-.27,14.84-.65,20.7.16a4,4,0,0,1,3.43,4v47.79" transform="translate(-1.03 -220.43)" fill="none" stroke="#fff" stroke-miterlimit="12.75" stroke-width="2.55"/>
    <path d="M113.94,531.65q18.9.5,37.78-.76c1.58-.11.57-3.09-.8-3L114,529.53c-1.56.07-.58,3.08.81,3l36.89-1.66c-.27-1-.53-2-.8-3q-18.87,1.26-37.79.76c-1.53,0-.58,3,.81,3" transform="translate(-1.03 -220.43)" fill="#fff"/>
    <path d="M114.4,543.54l34.53-2.1c.73,0-.85-2.58-1.78-2.53l-34.71,2c.59.84,1.18,1.69,1.78,2.53,10-2.41,20.48,2.24,30.41-1,.87-.29-1-2.8-1.78-2.53-9.93,3.27-20.36-1.37-30.41,1-.9.22,1,2.57,1.78,2.53l34.71-2c-.59-.84-1.19-1.68-1.78-2.53L112.63,541c-.73,0,.84,2.59,1.77,2.53" transform="translate(-1.03 -220.43)" fill="#fff"/>
    <path d="M133.06,463.8a216.09,216.09,0,0,0-1.25,27.75c.05,9.45.18,18.9.27,28.35,0,1.1,2.67,2.72,2.65,1.17-.09-9.25-.21-18.49-.27-27.74a214,214,0,0,1,1.21-27.84c.14-1.15-2.46-2.89-2.61-1.69" transform="translate(-1.03 -220.43)" fill="#fff"/>
    <path d="M135,590.43l1.59-34.64a1.16,1.16,0,0,1,1.08-1.1c3.83-.25,17-2.29,18.87-2.16,1.7.11,5.89-10.18,7.7-15.62a8.28,8.28,0,0,1,3.75-4.57c1.72-1,3.87-2,5.34-2.09,2.12-.11,13.34-.56,18.82-.78a3.66,3.66,0,0,1,3.64,2.68c.54,1.9,1.45,4.1,2.79,4.19,2.38.14,7.43-.45,8,1s1.49,14.19,1.49,14.19" transform="translate(-1.03 -220.43)" fill="none" stroke="#fff" stroke-miterlimit="12.75" stroke-width="2.55"/>
    <path d="M203.19,590.43,201.66,553s.86-1.08,4.51-1.2c2.42-.08,12.54-1.15,19.11-1.86a6.68,6.68,0,0,0,6.18-5.83l.78-9.88c.14-1.73,1.71-3.08,4.11-3.14l27.91-.7a4.27,4.27,0,0,1,4.21,3.84l.49,7.07a4.18,4.18,0,0,0,4,3.68l24.2,1.8a6,6,0,0,1,5.84,5.7v38" transform="translate(-1.03 -220.43)" fill="none" stroke="#fff" stroke-miterlimit="12.75" stroke-width="2.55"/>
    <path d="M157.59,551.76a23,23,0,0,0,2.87-6.18,47,47,0,0,0,1.31-11.17V513.78a4.26,4.26,0,0,1,4.11-4.24l55.41-1.35" transform="translate(-1.03 -220.43)" fill="none" stroke="#fff" stroke-miterlimit="12.75" stroke-width="2.55"/>
    <path d="M172.57,509.32V486.66a5.47,5.47,0,0,1,3.79-5.21A4.17,4.17,0,0,0,180,477.3a3.59,3.59,0,0,1,3.42-3.58l9.55-.43a2.08,2.08,0,0,1,2.16,1.86l.57,5.41a12,12,0,0,0,3.46,7.24s2.46,1.2,2.46,2.58v17.81" transform="translate(-1.03 -220.43)" fill="none" stroke="#fff" stroke-miterlimit="12.75" stroke-width="2.55"/>
    <path d="M185.68,481l5.93-.76a1,1,0,0,0,.65-.65,1.7,1.7,0,0,0-.1-1.09,1.78,1.78,0,0,0-1.8-1.14l-5.92.76a1,1,0,0,0-.66.65,1.64,1.64,0,0,0,.11,1.09,1.76,1.76,0,0,0,1.79,1.14" transform="translate(-1.03 -220.43)" fill="#fff"/>
    <path d="M180.15,486.13q.38,8.91.76,17.82a2,2,0,0,0,1.29,1.84,1,1,0,0,0,1.37-1q-.37-8.91-.76-17.82a2,2,0,0,0-1.29-1.85,1,1,0,0,0-1.37,1" transform="translate(-1.03 -220.43)" fill="#fff"/>
    <path d="M189.35,487.29a57.56,57.56,0,0,0,1,17,1.92,1.92,0,0,0,1.6,1.54,1,1,0,0,0,1-1.39,54.94,54.94,0,0,1-1-16.28c.14-1.52-2.48-2.87-2.66-.89" transform="translate(-1.03 -220.43)" fill="#fff"/>
    <path d="M259.46,321.62l-38,55.48a.76.76,0,0,0,.09,1l41.62,42.52,42.63-41.84a.77.77,0,0,0,.06-1l-45.25-56.15A.7.7,0,0,0,259.46,321.62Z" transform="translate(-1.03 -220.43)" fill="none" stroke="#fff" stroke-miterlimit="12.75" stroke-width="2.55"/>
    <path d="M306,519.06V378.26" transform="translate(-1.03 -220.43)" fill="none" stroke="#fff" stroke-miterlimit="12.75" stroke-width="2.55"/>
    <path d="M221.3,550.22V377.62" transform="translate(-1.03 -220.43)" fill="none" stroke="#fff" stroke-miterlimit="12.75" stroke-width="2.55"/>
    <path d="M263.12,420.59v108" transform="translate(-1.03 -220.43)" fill="none" stroke="#fff" stroke-miterlimit="12.75" stroke-width="2.55"/>
    <path d="M224,440.85l33.27,1.21c1.83.07.88-2.88-.6-2.94l-33.27-1.21c-1.83-.06-.89,2.89.6,2.94" transform="translate(-1.03 -220.43)" fill="#fff"/>
    <path d="M266.58,441.41a149,149,0,0,0,37.69-.52c1.63-.23.24-3.09-1.24-2.88a146.4,146.4,0,0,1-37.06.46c-1.79-.2-.86,2.77.61,2.94" transform="translate(-1.03 -220.43)" fill="#fff"/>
    <path d="M268,453.54a345.22,345.22,0,0,0,35.67-.89c1.83-.14.87-3-.61-2.94a345.15,345.15,0,0,1-35.67.89c-1.83,0-.88,2.9.61,2.94" transform="translate(-1.03 -220.43)" fill="#fff"/>
    <path d="M271.51,466q17.24.43,34.46.17c1.84,0,.89-3-.6-2.94q-17.24.25-34.46-.16c-1.83-.05-.88,2.9.6,2.93" transform="translate(-1.03 -220.43)" fill="#fff"/>
    <path d="M302,476.05a136.73,136.73,0,0,1-31.73,2.5c-1.82-.07-.88,2.88.6,2.94a139.59,139.59,0,0,0,32.38-2.56c1.63-.33.23-3.17-1.25-2.88" transform="translate(-1.03 -220.43)" fill="#fff"/>
    <path d="M260.12,465.87l-34.46,0c-1.83,0-.88,2.93.6,2.93l34.47,0c1.83,0,.88-2.94-.61-2.94" transform="translate(-1.03 -220.43)" fill="#fff"/>
    <path d="M257.25,476.94q-18.12.94-36.27.27c-1.83-.07-.88,2.88.6,2.93q18.13.69,36.27-.26c1.84-.1.88-3-.6-2.94" transform="translate(-1.03 -220.43)" fill="#fff"/>
    <path d="M258.77,489.94a154.34,154.34,0,0,1-37.14.24c-1.79-.21-.86,2.77.61,2.94a156.57,156.57,0,0,0,37.78-.31c1.62-.21.24-3.07-1.25-2.87" transform="translate(-1.03 -220.43)" fill="#fff"/>
    <path d="M225.73,509.58a277.79,277.79,0,0,1,33.89-.84c1.83.06.88-2.89-.6-2.94a275.8,275.8,0,0,0-33.89.85c-1.83.15-.87,3.06.6,2.93" transform="translate(-1.03 -220.43)" fill="#fff"/>
    <path d="M225.76,522.64l33.86-.86c1.84,0,.89-3-.6-2.93l-33.86.86c-1.84,0-.88,3,.6,2.93" transform="translate(-1.03 -220.43)" fill="#fff"/>
    <path d="M268.25,497.74a261.71,261.71,0,0,1,33.56-2.31c1.84,0,.89-2.95-.6-2.94A266.31,266.31,0,0,0,267,494.86c-1.62.22-.24,3.08,1.25,2.88" transform="translate(-1.03 -220.43)" fill="#fff"/>
    <path d="M268.54,510.38l32.68-.07c1.83,0,.88-2.94-.61-2.94l-32.68.07c-1.83,0-.88,2.94.61,2.94" transform="translate(-1.03 -220.43)" fill="#fff"/>
    <path d="M224.5,455.5q17.56-.66,35.12-1.41c1.84-.08.88-3-.6-2.93q-17.56.75-35.12,1.4c-1.84.07-.88,3,.6,2.94" transform="translate(-1.03 -220.43)" fill="#fff"/>
    <path d="M225.16,430l33.87.62c1.83,0,.88-2.91-.61-2.94L224.56,427c-1.83,0-.88,2.91.6,2.94" transform="translate(-1.03 -220.43)" fill="#fff"/>
    <path d="M269.73,432a269.7,269.7,0,0,0,30.59-1.81c1.61-.19.23-3.05-1.25-2.88A265.35,265.35,0,0,1,269.12,429c-1.83,0-.88,2.94.61,2.94" transform="translate(-1.03 -220.43)" fill="#fff"/>
    <path d="M272.1,420.85l28.53-1c1.83-.07.88-3-.61-2.94l-28.52,1c-1.84.06-.88,3,.6,2.94" transform="translate(-1.03 -220.43)" fill="#fff"/>
    <path d="M285.77,410.18a81.87,81.87,0,0,0,15.17-.68c.78-.11.78-1.2.55-1.74a1.77,1.77,0,0,0-1.8-1.14,77.46,77.46,0,0,1-14.52.62c-1.82-.09-.88,2.87.6,2.94" transform="translate(-1.03 -220.43)" fill="#fff"/>
    <path d="M293.49,400.11h7.13c1.84,0,.89-2.94-.6-2.94h-7.13c-1.83,0-.88,2.94.6,2.94" transform="translate(-1.03 -220.43)" fill="#fff"/>
    <path d="M226.35,419.21l29.11.66c1.83,0,.88-2.9-.6-2.94l-29.11-.66c-1.83,0-.88,2.91.6,2.94" transform="translate(-1.03 -220.43)" fill="#fff"/>
    <path d="M227.54,409c5.06,0,10.12.26,15.15.74.78.08,1.13-.74,1-1.39a1.94,1.94,0,0,0-1.6-1.54c-5-.49-10.09-.73-15.15-.75-1.84,0-.89,2.94.6,2.94" transform="translate(-1.03 -220.43)" fill="#fff"/>
    <path d="M227.14,400.77h7.13c1.83,0,.88-2.94-.6-2.94h-7.13c-1.84,0-.89,2.94.6,2.94" transform="translate(-1.03 -220.43)" fill="#fff"/>
    <path d="M360.63,590.43V564.56a4.55,4.55,0,0,1,4.61-4.54l20.15.3A4.72,4.72,0,0,1,390,565v25.39" transform="translate(-1.03 -220.43)" fill="none" stroke="#fff" stroke-miterlimit="12.75" stroke-width="2.55"/>
    <path d="M365.39,568.85H385c1.83,0,.88-2.94-.61-2.94h-19.6c-1.84,0-.89,2.94.6,2.94" transform="translate(-1.03 -220.43)" fill="#fff"/>
    <path d="M367.17,576a82,82,0,0,1,14.86.48c.78.09,1.13-.76,1-1.4a2,2,0,0,0-1.6-1.54,81.09,81.09,0,0,0-14.86-.47c-1.84.11-.88,3,.6,2.93" transform="translate(-1.03 -220.43)" fill="#fff"/>
    <path d="M369.56,583.81l8.9-.72a1,1,0,0,0,.84-.39,1.3,1.3,0,0,0,.15-1c-.15-.65-.81-1.61-1.59-1.55l-8.91.73a.94.94,0,0,0-.83.39,1.3,1.3,0,0,0-.16,1c.15.64.81,1.61,1.6,1.54" transform="translate(-1.03 -220.43)" fill="#fff"/>
    <path d="M296.76,546.45V522.9a3.75,3.75,0,0,1,3.7-3.79h14.17a3.08,3.08,0,0,0,3-3.13V472.46a1.61,1.61,0,0,1,1.59-1.63h24.06a2.19,2.19,0,0,1,2.16,2.21V590.43" transform="translate(-1.03 -220.43)" fill="none" stroke="#fff" stroke-miterlimit="12.75" stroke-width="2.55"/>
    <path d="M332.11,470.83V438a6.26,6.26,0,0,1,6.24-6.28H367a7,7,0,0,1,7,7V560" transform="translate(-1.03 -220.43)" fill="none" stroke="#fff" stroke-miterlimit="12.75" stroke-width="2.55"/>
    <path d="M374,465.63h16" transform="translate(-1.03 -220.43)" fill="none" stroke="#fff" stroke-miterlimit="12.75" stroke-width="2.55"/>
    <path d="M374.12,466.58l5.34-.31a9.05,9.05,0,0,0,1.87-.42,21.12,21.12,0,0,0,2.32-.79l.6-.25a3.5,3.5,0,0,0,.73-.41c.21-.26-.26-.18-.39-.17l-5.35.3a9.85,9.85,0,0,0-1.86.43,20.59,20.59,0,0,0-2.33.79l-.6.25a3.5,3.5,0,0,0-.73.41c-.21.25.26.18.4.17" transform="translate(-1.03 -220.43)" fill="#fff"/>
    <path d="M378.25,465.52l7.42.38s.94.08,1-.12-.88-.45-.87-.45a18,18,0,0,0-4.43-.8l-7.42-.38s-.94-.09-1,.11.88.45.86.45a18.67,18.67,0,0,0,4.44.81" transform="translate(-1.03 -220.43)" fill="#fff"/>
    <path d="M377.63,464.9a71.2,71.2,0,0,0,12.56.13c1-.08-1.26-1.91-1.39-2-1-.67-2.38-1.66-3.64-1.56a67.62,67.62,0,0,1-11.82-.11c-1.33-.14.05,1.23.41,1.52a11.25,11.25,0,0,0,2.06,1.35,5.4,5.4,0,0,0,1.82.67" transform="translate(-1.03 -220.43)" fill="#fff"/>
    <path d="M385.76,459.46l-9.4-.38,1.08,5.08,10.46.39c1.33.05,2.84-.87,2.46-2.39a3.87,3.87,0,0,0-3.53-2.7l-10.47-.38c-1.32-.05-2.84.87-2.46,2.39a3.87,3.87,0,0,0,3.54,2.69l9.4.39c1.32.05,2.84-.88,2.45-2.39a3.86,3.86,0,0,0-3.53-2.7" transform="translate(-1.03 -220.43)" fill="#fff"/>
    <path d="M390,501.07v-93.2a6.39,6.39,0,0,1,6.39-6.39h53.74a6.39,6.39,0,0,1,6.39,6.39v89.47" transform="translate(-1.03 -220.43)" fill="none" stroke="#fff" stroke-miterlimit="12.75" stroke-width="2.55"/>
    <path d="M401,401.48V392a1.28,1.28,0,0,1,1.28-1.28h12.65A1.27,1.27,0,0,1,416.2,392v9.53" transform="translate(-1.03 -220.43)" fill="none" stroke="#fff" stroke-miterlimit="12.75" stroke-width="2.55"/>
    <path d="M430.4,401.48V392a1.27,1.27,0,0,1,1.27-1.28h12.65A1.28,1.28,0,0,1,445.6,392v9.53" transform="translate(-1.03 -220.43)" fill="none" stroke="#fff" stroke-miterlimit="12.75" stroke-width="2.55"/>
    <path d="M435.26,390.24V376.06a1.28,1.28,0,0,0-2.55,0v14.18a1.28,1.28,0,0,0,2.55,0" transform="translate(-1.03 -220.43)" fill="#fff"/>
    <path d="M443.7,390.24V376.06a1.28,1.28,0,0,0-2.55,0v14.18a1.28,1.28,0,0,0,2.55,0" transform="translate(-1.03 -220.43)" fill="#fff"/>
    <path d="M405.66,390.24V376.06a1.28,1.28,0,0,0-2.55,0v14.18a1.28,1.28,0,0,0,2.55,0" transform="translate(-1.03 -220.43)" fill="#fff"/>
    <path d="M414.09,390.24V376.06a1.28,1.28,0,0,0-2.55,0v14.18a1.28,1.28,0,0,0,2.55,0" transform="translate(-1.03 -220.43)" fill="#fff"/>
    <path d="M400.3,409.1a488.06,488.06,0,0,0,.05,80.56c.08,1,3,2.06,2.92,1a489.16,489.16,0,0,1,0-80.56c.08-.95-2.83-2.15-2.92-1" transform="translate(-1.03 -220.43)" fill="#fff"/>
    <path d="M411.86,415.92q2,32.11,1.52,64.3c0,.85,2.92-.12,2.94-1q.48-32.34-1.54-64.62c0-.53-3,.28-2.92,1.27" transform="translate(-1.03 -220.43)" fill="#fff"/>
    <path d="M425.33,409.87c-1.49,24.29,0,48.62,1.48,72.87.07,1.21,2.93-.1,2.86-1.2-1.49-24.25-3-48.58-1.48-72.87.07-1.12-2.79.09-2.86,1.2" transform="translate(-1.03 -220.43)" fill="#fff"/>
    <path d="M440.6,409.74a310.2,310.2,0,0,0,1.52,69.18c.15,1.13,3.33.87,3.18-.2a310.8,310.8,0,0,1-1.52-69.18c.09-1-3.08-1-3.18.2" transform="translate(-1.03 -220.43)" fill="#fff"/>
    <path d="M374,519.11v-11.8a6.23,6.23,0,0,1,6.23-6.24h15.35a3.38,3.38,0,0,1,3.37,3.38,5.64,5.64,0,0,0,5.64,5.64,3.71,3.71,0,0,1,3.72,3.72,5.3,5.3,0,0,0,5.3,5.3h2.65a2.3,2.3,0,0,1,2.3,2.3v69" transform="translate(-1.03 -220.43)" fill="none" stroke="#fff" stroke-miterlimit="12.75" stroke-width="2.55"/>
    <path d="M472,523.78v-24c0-1.34-1.71-2.43-3.83-2.43H433.64c-2.17,0-3.94,1.12-3.94,2.5v90.58" transform="translate(-1.03 -220.43)" fill="none" stroke="#fff" stroke-miterlimit="12.75" stroke-width="2.55"/>
    <path d="M511.81,523.78H467.93a3,3,0,0,0-3,3v4.79a4.52,4.52,0,0,1-4.53,4.52h-3.82a4.13,4.13,0,0,0-4.13,4.13v51" transform="translate(-1.03 -220.43)" fill="none" stroke="#fff" stroke-miterlimit="12.75" stroke-width="2.55"/>
    <path d="M565.84,591.3V516.39c0-3.41-1.45-6.18-3.25-6.21L515,509.32c-1.67,0-3.05,2.5-3.07,5.67l-.64,76.31" transform="translate(-1.03 -220.43)" fill="none" stroke="#fff" stroke-miterlimit="12.75" stroke-width="2.55"/>
    <path d="M518.69,520.53l41,.6c1.83,0,.88-2.91-.61-2.93l-41-.61c-1.83,0-.89,2.91.6,2.94" transform="translate(-1.03 -220.43)" fill="#fff"/>
    <path d="M519.88,531.23l40.4.56c1.83,0,.88-2.91-.6-2.93l-40.41-.57c-1.83,0-.88,2.92.61,2.94" transform="translate(-1.03 -220.43)" fill="#fff"/>
    <path d="M520.46,543.17q19.62-.66,39.23-.26c1.83,0,.88-2.9-.6-2.94q-19.62-.4-39.23.26c-1.84.07-.88,3,.6,2.94" transform="translate(-1.03 -220.43)" fill="#fff"/>
    <path d="M522.82,557.29a198.36,198.36,0,0,1,32.7-.21c1.81.14.87-2.82-.61-2.94a198.23,198.23,0,0,0-32.69.21c-1.83.16-.88,3.07.6,2.94" transform="translate(-1.03 -220.43)" fill="#fff"/>
    <path d="M524.63,570.55l27.92.82c1.83.06.88-2.89-.6-2.93L524,567.61c-1.83-.05-.88,2.9.6,2.94" transform="translate(-1.03 -220.43)" fill="#fff"/>
    <path d="M533.28,584.36a75.41,75.41,0,0,1,13.93-.64c1.82.09.87-2.87-.61-2.94a78.9,78.9,0,0,0-14.57.7c-.78.12-.78,1.21-.55,1.75a1.75,1.75,0,0,0,1.8,1.13" transform="translate(-1.03 -220.43)" fill="#fff"/>
    <path d="M610.18,591.3c.23-1.34,0-109.4,0-109.4L571.44,481a8.14,8.14,0,0,0-8.2,6.66,6.11,6.11,0,0,1-6.25,5,15.9,15.9,0,0,0-16.55,15.88" transform="translate(-1.03 -220.43)" fill="none" stroke="#fff" stroke-miterlimit="12.75" stroke-width="2.55"/>
    <path d="M472,523.78l1.11-86.67a5.41,5.41,0,0,1,5.41-5.35H539a3.72,3.72,0,0,1,3.72,3.72v10.29A10.17,10.17,0,0,0,552,455.9l9,.71a8.77,8.77,0,0,1,8,7.56L571.34,481" transform="translate(-1.03 -220.43)" fill="none" stroke="#fff" stroke-miterlimit="12.75" stroke-width="2.55"/>
    <path d="M487.67,523.78l1.75-92" transform="translate(-1.03 -220.43)" fill="none" stroke="#fff" stroke-miterlimit="12.75" stroke-width="2.55"/>
    <path d="M521.66,431.76l-2.06-12.89a7.56,7.56,0,0,0-7.6-6.12l-24.06.58a9,9,0,0,0-8.49,6.71l-2.51,11.72" transform="translate(-1.03 -220.43)" fill="none" stroke="#fff" stroke-miterlimit="12.75" stroke-width="2.55"/>
    <path d="M486.82,419c-.25,2.77-.51,5.54-.76,8.31a1.94,1.94,0,0,0,1.29,1.84,1,1,0,0,0,1.36-.95q.39-4.15.77-8.31a1.94,1.94,0,0,0-1.29-1.84,1,1,0,0,0-1.37.95" transform="translate(-1.03 -220.43)" fill="#fff"/>
    <path d="M495.07,419v7.72a2,2,0,0,0,1.29,1.85,1,1,0,0,0,1.37-1v-7.72a2,2,0,0,0-1.29-1.85,1,1,0,0,0-1.37,1" transform="translate(-1.03 -220.43)" fill="#fff"/>
    <path d="M504.05,419.84a10.17,10.17,0,0,0,.08,7.63c.25.62,1.07,1.37,1.8,1.13s.81-1.1.55-1.74c-.06-.15-.11-.29-.16-.43-.14-.36.08.32,0-.05s-.13-.51-.18-.77-.05-.3-.07-.45-.07-.42,0-.08a5.35,5.35,0,0,1,0-.8c0-.27,0-.53.05-.79s0-.23,0-.34c0,.31,0-.16,0-.22a8.37,8.37,0,0,1,.48-1.52,1.65,1.65,0,0,0-.1-1.09,2.09,2.09,0,0,0-.81-.93,1.06,1.06,0,0,0-1.65.45" transform="translate(-1.03 -220.43)" fill="#fff"/>
    <path d="M512.46,420.51c.14.52.26,1,.35,1.56.05.28.09.56.13.85l0,.36c0-.32,0,.12,0,.18a16.05,16.05,0,0,1-.13,3.25,2,2,0,0,0,1.3,1.84,1.07,1.07,0,0,0,1-.09,1.22,1.22,0,0,0,.41-.86,17.3,17.3,0,0,0-.46-6.94c-.19-.7-.78-1.54-1.6-1.54a1.06,1.06,0,0,0-1,1.39" transform="translate(-1.03 -220.43)" fill="#fff"/>
    <path d="M604.29,481.75l-1-63.54a2,2,0,0,0-2-2h-4.1a5.62,5.62,0,0,1-5.29-3.73l-2.65-7.4a3.72,3.72,0,0,0-3.51-2.47H495.55a4,4,0,0,0-3.66,2.33l-3.95,8.36" transform="translate(-1.03 -220.43)" fill="none" stroke="#fff" stroke-miterlimit="12.75" stroke-width="2.55"/>
    <path d="M518.82,403.44v-112a4.87,4.87,0,0,1,4.87-4.87h27.42a4.86,4.86,0,0,1,4.81,4.11l17.49,111.63" transform="translate(-1.03 -220.43)" fill="none" stroke="#fff" stroke-miterlimit="12.75" stroke-width="2.55"/>
    <path d="M530.85,285.89V252.62a1.53,1.53,0,0,0-3.06,0v33.27a1.53,1.53,0,0,0,3.06,0" transform="translate(-1.03 -220.43)" fill="#fff"/>
    <path d="M546.85,285.89V252.62a1.53,1.53,0,0,0-3.06,0v33.27a1.53,1.53,0,0,0,3.06,0" transform="translate(-1.03 -220.43)" fill="#fff"/>
  </g>
  <g id="Layer-5">
    <path d="M198.93,271.86l-16-6.7-15.18,8.4,2.11-16.14-13.23-10.63,17.3-3.28,7-15,8.59,14.12L207.08,244l-12,12Z" transform="translate(-1.03 -220.43)" fill="#fff" stroke="#fff" stroke-miterlimit="12.75" stroke-width="1.28"/>
    <path d="M295.39,290.46l-16.86-4L264.9,297.16l-.52-16.27-14.77-8.36,16.55-6,4.5-15.89,10.74,12.54L299,261.69l-9.9,13.78Z" transform="translate(-1.03 -220.43)" fill="#fff" stroke="#fff" stroke-miterlimit="12.75" stroke-width="1.28"/>
    <path d="M394.24,239.64,384.47,254l5.17,16.56-15.39-5.31L361.18,276l.26-17.6-13.25-9.87L363.74,243l4.88-16.92L378,240.23Z" transform="translate(-1.03 -220.43)" fill="#fff" stroke="#fff" stroke-miterlimit="12.75" stroke-width="1.28"/>
    <path d="M478.64,290.43l-15.76-7.25-15.45,7.87L450.09,275l-12.85-11.08,17.4-2.68,7.51-14.71,8.09,14.4,17.5,2-12.4,11.59Z" transform="translate(-1.03 -220.43)" fill="#fff" stroke="#fff" stroke-miterlimit="12.75" stroke-width="1.28"/>
  </g>
</svg>
