<svg xmlns="http://www.w3.org/2000/svg" viewBox="0 0 474.36 312.69"><defs><style>.cls-1{fill:#3a9ed2;}</style></defs><title>skyline_blue_1</title><g id="Layer_2" data-name="Layer 2"><g id="Layer_1-2" data-name="Layer 1"><g id="B0ipwj.tif"><path class="cls-1" d="M57.08,244.85c0-6.34,0-12.69,0-19,0-3.1-1.39-6.86,4.31-6.89,2.37,0,1.4-3,1.4-4.63-.08-23.83-.26-47.66-.37-71.49,0-2.82-1-6.11,3.63-6.82,2.1-.32,1.08-2.86,1-4.35-.26-15.83-.62-31.66-1-47.48-.07-3-.58-6,3.92-6.56,2.22-.27,2.2-2.63,2.15-4.5-.27-10.49.23-21-.9-31.46-.73-6.85-.26-7,6.48-8.92,3.84-1.13,3.35-5.33,3.41-8.25.11-6.31-.6-12.64-.87-19-.06-1.51-1-3.94,1.37-4.13s1.85,2.36,2,3.86c.46,6.15.74,12.31,1.17,18.46.1,1.35-.41,3.41,1.86,3.39,2.47,0,1.61-2.13,1.55-3.41-.28-6.5-.78-13-1-19.47C87.12,2.74,86.1.29,88.44,0c2.49-.28,1.85,2.29,2,3.75.43,5.31.5,10.66,1.08,16,.33,3-.88,6.71,3.29,8.53.74.33.74,2.75.8,4.22.56,13.32,1.28,26.64,1.47,40,.06,4.44,1.52,6.18,5.74,5.66s5.41,1.26,5.36,5.38c-.19,15.49,0,31-.08,46.49,0,3.42.51,5.54,4.55,5s4.4,2.22,4.42,5.35q.36,44.75.83,89.48c0,1.33,0,2.67,0,4,0,1.61.07,3,2.24,3.08s2-1.25,2.66-2.71c6.11-13.9,1.37-28.33,2.22-42.47.51-8.63.08-17.32-.15-26-.09-3.29.73-4.79,4.4-4.81,3.89,0,9.09,1.84,11.34-1.2,1.88-2.53,1-7.4.67-11.18-.38-5,1.82-6.2,6.43-6.11,7.06.14,6.65,1.65,7.33-6.91a29.38,29.38,0,0,0,.16-3.5c-.17-3.53,1.16-5.18,5-4.91,4.65.33,9.33.38,14,.26,4.29-.12,6.3,1.27,6.27,6-.07,8.65.61,17.31.66,26,0,3.09,1,4.15,4,3.94,3.32-.22,6.68.14,10-.13,3.89-.32,4.74,1.3,4.61,5-.88,23.82-.72,47.65-.43,71.48,0,2.74-1.09,6,3.94,6.13,2.35.08,1.15,3.33,1.54,5.16.48,2.32-2.06,6.36,1.62,6.53,2.06.1.87-4.28.73-6.55-1.25-20.47-1.61-41-1.22-61.46.07-3.86,1.23-5.15,5.17-5.23,14.82-.33,14.82-.47,14.88,14.2,0,5.5.06,11,.15,16.5,0,1.07-.35,2.69,1.39,2.61,1.17-.06,1.23-1.45,1.23-2.43,0-4.67.06-9.33-.1-14-.66-18.66-2.06-37.36.7-55.89.66-4.43,1.4-10.72,8-12.13,1.16-.25,1.45-1.08,1.69-2.14.49-2.1-1.35-5.88,1.44-6,3.15-.15,1.4,3.64,1.82,5.68a2,2,0,0,0,2.38,1.9,1.7,1.7,0,0,0,1.86-1.84c0-.67,0-1.34.07-2,.13-1.55-.53-3.9,1.92-3.77,1.87.1,1.66,2.25,1.54,3.69-.2,2.58.35,4.13,3.45,3.95,3.43-.21,2.77,2.51,2.89,4.59.09,1.43-.35,3.26,2,3.19s1.83-2,1.81-3.33c-.05-2.83.08-5.18,3.73-5.94,2.13-.44.93-2.84,1.14-4.36.18-1.27-.21-3,1.71-2.93,1.41.06,1.5,1.54,1.57,2.74a31.15,31.15,0,0,0,.25,3.49c.21,1.26,1.25,1.37,2.29,1.32a1.53,1.53,0,0,0,1.62-1.51c.07-.66,0-1.34.09-2,.21-1.53-.6-4.06,1.61-4.08,2.66,0,1.71,2.68,1.84,4.32s-.14,3.39,2.4,3.44c1.62,0,2.24,1.32,2.41,2.73.31,2.63.26,5.12,3.94,5.87,1.6.33.82,3,.83,4.58,0,9.83.13,19.66,0,29.48-.05,3.55,1.22,4.68,4.71,4.1a39.43,39.43,0,0,1,9.44-.64c3.28.27,4.34-.62,4.46-4,.53-15,1.57-30,1.9-44.94.11-4.81,1.82-5.86,6.17-5.79,12.16.2,24.25,2.38,36.44,1.15,3.35-.34,3.19,2.2,3.32,4.34,1.17,19.3,1.79,38.64.69,57.95-.33,5.69.4,10.9,3.85,15,7.28,8.68,7,18.57,6.08,28.84a494,494,0,0,0-2.24,61.9c.12,3.5.38,7,.51,10.49.05,1.43.39,3.39-1.82,3.34-1.72,0-1.68-1.81-1.73-3.11-.14-3.49-.27-7-.23-10.49,0-4.41-3.28-2.55-5.37-3.05-3-.73-2.72,1.31-2.76,3.17-.06,3.5-.1,7-.3,10.49-.09,1.52.44,4-1.93,3.83-2.2-.18-1.49-2.61-1.47-4.15.15-9.16.17-18.33.67-27.48.22-4-.51-5.61-4.88-5.1-1.82.22-5.78,1.52-5.53-1.64s4.19-2,6.3-1.42c3.85,1,4.52-.37,4.2-3.78-.18-1.87-.76-2-2.46-1.87a53.54,53.54,0,0,1-7.49-.08,1.74,1.74,0,0,1-1.81-1.43c-.14-1.32,1-1.55,2-1.69.49-.07,1,0,1.5,0,2.69-.35,6.42,1.55,7.82-.47s.31-5.46.3-8.28c0-4.58,1.41-9.34-1.64-13.55-.77-1.07-1.07-3.2-3.15-1.5s-6.65-1.88-6.81,3.9c-.31,11.48-1.41,22.93-.75,34.45.18,3.23.7,4.77,4.44,4.33,1.93-.22,5.79-1.52,5.77,1.55s-3.92,1.87-5.85,1.54c-4.05-.71-4.65,1-4.63,4.43,0,6.64-1.63,13.21-1.09,19.9.1,1.17,0,2.64-1.59,2.54-1.39-.09-1.64-1.49-1.65-2.7a58.48,58.48,0,0,1,0-7.49c1.46-12.79,1.12-25.61,1.1-38.44,0-7.31.64-14.64,1.13-21.95.18-2.52-.5-3.88-3.22-3.5-3.71.53-4.12-1.45-3.76-4.48.73-6.12,1.2-12.26,1.87-18.39.31-2.77-.67-3.86-3.54-3.89a99.75,99.75,0,0,1-12-.86c-4-.52-5.1,1.06-5.28,4.89-1.36,29.13-2.7,58.26-3,87.43,0,2.4,1.47,6.93-1.4,6.84-3.47-.12-1.69-4.66-1.72-7.15-.26-24,.81-48,2.11-71.95.23-4.34-1.09-5.7-5.21-5a19.82,19.82,0,0,1-5,.11c-4.68-.45-7.88.5-7,6.29.4,2.63-1.19,3.52-3.62,3.45-2.17-.07-4.34,0-6.5,0-4.41,0-7.85.85-8.23,6.37-.26,3.86-4,3.24-6.33,3.27-4.5.06-5.31,2-5.27,6.11.18,17.33,0,34.66-.11,52,0,1.51.76,4-1.5,4.12-2.79.11-1.85-2.58-1.84-4.19,0-18.49.29-37,.18-55.49,0-4.14,1.27-5.68,5.35-5.5,3.79.17,6.82-.75,6.66-5.7-.1-3.07,2.11-4.28,5-4.25.5,0,1,0,1.5,0,12.1,0,12.34,0,12.47-12,.24-22.83.11-45.66.33-68.49,0-3.42-1.53-3.9-4.2-3.73-6.16.4-12.31.69-18.46,1.17a114.72,114.72,0,0,1-20.47,0c-6.07-.61-6.81-.19-7.33,6.08-1,12.14-.68,24.31-.31,36.47.27,9,.62,18,.62,27,0,3.27.58,4.86,4.29,4.74,7.67-.24,6.93-.32,6.75,7.14-.27,11-.79,22-.93,33-.05,3.69-1.27,5.23-5,4.8a63.92,63.92,0,0,0-6.49-.29c-1.26,0-3.07-.49-3,1.49,0,1.62,1.73,1.12,2.8,1.21,3.82.33,7.64.59,11.46.91,3.1.25,4.84,1.67,4.82,5.08-.05,8.5.1,17,.1,25.49,0,1.54.68,4-1.56,4.08-2.67.08-1.9-2.62-1.93-4.24-.11-7.17-.26-14.34,0-21.5.13-4-1.34-5.76-5.35-6.05-10.61-.76-10.59-.84-10.37,9.63.14,6.5.25,13,.37,19.5,0,1.33.13,3.13-1.49,3.23-2,.11-2-1.82-2-3.33-.14-10.16-.52-20.33-.28-30.49.11-4.53-1.44-5.76-5.69-5.62s-8.31-.75-12.46-.7-5.13-1.59-5-5.42c.27-7,.07-6.94-6.78-6.59-4,.21-8,.49-12,.46-2.46,0-3.48.71-3.76,3.32-.41,3.9,1.53,9.17-1.53,11.37-2.79,2-7.68,1.05-11.64,1.42-7.68.72-7.7.73-7.37,8.22.35,8.16.79,16.31,1.1,24.47,0,1.34.73,3.43-1.6,3.44-1.79,0-1.61-1.79-1.68-3.09q-.83-15.72-1.61-31.45c-.07-1.48-.33-3.45,1.59-3.71,4.51-.62,3.18-3.63,3-6.34-.21-3.27-2.32-3.53-4.87-3.37-1.82.11-3.59-.36-3.57-2.51,0-3.35-2.08-3.27-4.35-3.11-3,.21-6,.45-9,.75-3.5.35-5.45,1.34-7.47,5.3s-5.11,7-5.7,11.89c-.24,1.93-3.37,1.44-5.31,1.75-3.71.58-8.7-2.21-10.81.83-1.83,2.65-.67,7.39-.78,11.21-.18,6.16-.3,12.32-.49,18.48,0,1.29.16,3.07-1.66,3.09s-1.67-1.73-1.65-3c.2-10.33.48-20.66.61-31,0-2.92,1.42-3.7,4.06-3.57,3.16.15,6.33.07,9.5.06,1.81,0,3.41-.49,3.68-2.57.77-6.08,2.15-12.08,1.64-18.3-.19-2.29-.87-3.31-3.25-3.22-2.66.11-5.37-.34-8,0-3.44.44-3.79-1-3.62-3.95.63-11.31,1-22.64,1.43-34a67.89,67.89,0,0,0-.12-7c-.28-4.33-4-5.5-7-6.95s-3.6,2-5,3.51c-3.16,3.31-4,7.34-4.1,11.91-.13,11.49-.77,23-1,34.47-.06,3-1,4.49-4.06,4-3.82-.62-4.27,1.35-4.27,4.57,0,14-.2,28-.33,42,0,1.83,0,3.67-.05,5.5,0,1.29.3,3.13-1.44,3.26-2.27.17-1.81-1.93-1.81-3.3,0-12.33.11-24.66.17-37,0-2.84,0-5.67.07-8.5.09-2.2-.46-3.66-3-3.31-2.1.29-5.07-.8-5,3a5.5,5.5,0,0,1,0,1c-.41,2.18.89,5.46-1.76,6.23-2.91.84-8.57,1.15-9,.1-1.77-4.48-6.29-5.85-8.52-9.24-1.23-1.85-.3-5.18-.17-7.84.1-2-.44-3.11-2.71-3.15-2.56,0-1.9,1.74-2,3.1a16.27,16.27,0,0,0,.1,3.49c.83,4.72-.89,7-5.84,6.19-3.55-.54-4.13,1.34-4,4.4.69,13.3.94,26.64,2.69,39.88.15,1.15.26,2.32.31,3.48s.47,3.05-1.42,3.13-1.66-1.72-1.83-3a317.91,317.91,0,0,1-2.73-37.37c-.08-4-1.26-5.27-5.19-4.69a89.43,89.43,0,0,1-12.44,1c-3.42,0-4.1,1.5-4,4.6.26,11.5.26,23,.35,34.5a33,33,0,0,1-.13,4c-.1.85-.66,1.65-1.63,1.46a2.2,2.2,0,0,1-1.36-1.21,6.92,6.92,0,0,1-.32-2.45c-.13-13.34-.2-26.67-.37-40,0-2.79,1.21-3.78,3.89-3.93,5.65-.3,11.29-.9,16.94-1.27,2.74-.18,4.16-1,4-4.22-.45-8-.65-16-.71-24,0-2.89-1.1-3.7-3.86-3.58-6.32.29-12.66.52-19,.36-4-.1-5,1.63-5.15,5.32-.85,23.65-1.89,47.29-2.86,70.93,0,.66,0,1.33-.08,2-.14,1.27.15,3.14-1.6,3.16-2.28,0-1.69-2.09-1.65-3.43.39-12.66,1-25.31,1.27-38,.5-21.13,2.91-42.17,2.64-63.36-.06-4.61,2.51-9.28,2.83-14.2.11-1.81,1.95-2.77,3.75-2.62,3.22.27,3.93-1.25,3.84-4.13-.1-3.31-1.09-7.13,4.05-8.23,1.53-.32.84-2.65.86-4.07.09-9,.61-18,0-27s1.72-16.08,8.25-22c2.11-1.9,3.14-6.45,6.34-5.31,2.79,1,.83,5.08,1.27,7.76.28,1.69,1.4,3.55,1.54,4.64.84,6.22,6.82,10.13,7.09,16.22.44,9.81.32,19.65.37,29.48,0,3.34-.16,6.36,4.86,5.82,3-.32,2.52,2.44,2.48,4.39-.38,16.66,0,33.32.51,50,.07,2.33-.75,5.05,2.93,5.82,1.49.32,1.13,2.19,1.13,3.51v8.66Zm47.71-134.7h-.15c0-7.83-.21-15.67.09-23.5.16-4.12-1.17-5.81-5.29-5.44-3.92.35-5.48-1.29-5.57-5.49-.3-13.49-1.05-27-1.63-40.46-.09-2,.58-4.69-2.93-4.48-2.5.15-6.09-1.63-6.13,3.28,0,2.08-1.62,2.4-3.19,2.22-5.15-.58-5.54,2.23-5.32,6.41.61,11.31.82,22.65,1.22,34,.08,2.28-.65,4.26-3,4.4-3.92.23-3.39,2.75-3.33,5.28q.61,24.5,1.18,49c0,1.45.64,3.66-1.21,3.84C65,139.61,66,142.74,66,145.4q.08,36,.19,72c0,2.64,1,6.14-4,5.24-1.93-.34-1.86,1.48-1.79,2.81.47,8.52-.32,17.15,2.7,25.45.53,1.47,1.13,1.78,2.38,1.79s2.78.22,3-1.7a10,10,0,0,0,.28-2.47c-.7-5.56,2.2-6.93,7.06-6.36,4.33.51,6.77-4.82,11.47-3.81,1,.2.86-1.94.91-3,.48-10.65,1.27-21.31,1.24-32a20.49,20.49,0,0,1,4.94-14.15c5.14-6.09,4.84-5.84,12.21-2.39,4.86,2.27,6.29,5.34,6,10.46-.6,11.65-.27,23.33-1.19,35-.11,1.45-1,4,1.38,4s1.42-2.58,1.42-4c0-29.67.18-59.33-.67-89-.11-3.76-1-5.61-5-5.06-3,.4-4-.85-3.84-4C105,126.16,104.79,118.15,104.79,110.15Zm21.29,141.31c.39-4.23,3.78-4.6,6.92-5.07a86.55,86.55,0,0,1,14.91-1.24c2.87.06,5.88-.38,5.84,4a1.73,1.73,0,0,0,2.13,1.62c5.69-.79,6.29,3.13,6.27,7.09,0,4.11,1.72,4.88,5.49,4.54,7.29-.64,7.31-.42,7.52-7.74,0-1.33.17-2.67.12-4-.13-3.12,1.1-4.53,4.42-4.36,4,.21,8-.15,12,0,3.09.1,4.44-.76,4.34-4.21-.73-23.8-.4-47.61.19-71.41.08-3.53-1.32-4.17-4.37-4.1-8.16.18-16.32.31-24.47.1-3.81-.1-4.75,1.27-4.72,4.89.11,18.49.74,36.94,2.26,55.37.34,4.17,2.37,6,6.29,6.13,2.16.07,4.32-.1,6.49-.09.81,0,1.8.11,1.89,1.14a2.12,2.12,0,0,1-.76,1.63c-3.4,2.51-14.75.33-17-3.4a3,3,0,0,0-3.23-1.58c-9.81.51-19.62,1-29.43,1.43-2.35.1-3.2,1-3.16,3.32C126.15,240.81,126.08,246.13,126.08,251.46Zm223.25-68.6c1-17.4.21-34.84-.63-52.29-.09-1.75-.4-3.3-2.83-3.12-10.69.78-21.29-.91-31.94-1.24-3.27-.1-4.3,1-4.45,4.18q-1.55,33.69-3.4,67.37c-.16,3,.6,4.19,3.76,4.21,4.82,0,9.65.86,14.46.72s5.61,2,5.14,6.05c-.64,5.46-1,10.95-1.27,16.43-.07,1.36-1.58,3.78,1.21,4,3,.2,2.2-2.59,2-4.06-1.41-9.68.89-18.42,6-26.64,3-4.79,3.66-10.11,3.62-15.75-.11-15.66.23-31.32-.47-47-.07-1.55-.75-4.05,1.37-4.23,2.75-.23,2.05,2.51,2.07,4.15.16,12.67.31,25.33.25,38C344.17,177.73,343.78,181.69,349.33,182.86ZM31.53,115.63c-6.93,6-8.48,9.37-8.52,17.45,0,10.67,0,21.33-.1,32,0,1.59.67,4.14-1.05,4.54-5.11,1.16-4,4.91-3.91,8.19s-.78,5.06-4.4,5c-3.06,0-3.83,2.1-3.63,4.79.25,3.29,2.79,2.27,4.54,2.25,5.17,0,10.32-.34,15.48-.48,2.07,0,4.11,0,4.26,2.92.56,10.71.43,21.43,3.33,32,1.33,4.83.37,10.28.62,15.44.11,2.34-1.2,5.62,3.5,5.39,4.51-.22,2.51-3.29,2.81-5.41.42-3-2.36-7.39,3.52-8.11.33,0,.74-1.45.7-2.21-.86-16.82-.54-33.65-.52-50.48,0-2.07-.56-3.19-2.8-2.94-3.46.39-4.13-1.61-4.28-4.55-.47-9.66-1-19.3-.82-29,.05-3.44,1.27-7.45-3.83-8.78a2.41,2.41,0,0,1-1.14-2C36.44,125.73,30.26,121.65,31.53,115.63ZM150.87,181.4c-2.93,9.41,1.91,19,2.28,29.08,0,.56.49,1.57.81,1.6,5.63.47,3.77,4.8,4.12,7.93.2,1.81.14,3.66.25,5.48a1.52,1.52,0,0,0,1.56,1.59c1.08,0,1.37-.78,1.38-1.65,0-1.33-.06-2.67-.16-4-1.31-17.46-1.92-34.93-2-52.43,0-4.24,1-6.27,5.58-5.75,2.47.27,5-.21,7.49.08,4.29.51,6-.9,5.67-5.45a183.92,183.92,0,0,1-.62-20.46c.18-5.27-1.85-6.65-6.85-6.76-11.35-.27-11.42-.54-12.41,10.86-.26,2.95-1,4.49-4.4,4.56-8.67.18-8.67.33-8.74,9.13,0,.5,0,1,0,1.5-.18,2.41,0,4.25,3.34,4,2.51-.19,2.73,1.8,2.72,3.81C150.84,169.87,150.87,175.2,150.87,181.4Zm-3.8,1.15h.2c0-5-.12-10,0-15,.09-2.6-.78-3.59-3.42-3.46-4.16.21-8.33.22-12.5.17-2.3,0-3.28.83-3.23,3.22.4,19.5.72,39,1.09,58.48,0,1.12-.11,2.61,1.63,2.42,1.3-.13,1.16-1.43,1.15-2.4,0-4,0-8-.1-12-.05-2.89-.45-5.64,3.95-5.88,3.36-.18.14-6.07,4.32-6,7.42.08,7.14-4.89,6.9-10C147,188.89,147.07,185.72,147.07,182.55ZM238.84,240h.91c0-5-.16-10,.07-14.95.13-2.82-.69-3.9-3.58-3.84a125.71,125.71,0,0,1-13.45-.36c-4-.37-4.83,1.3-4.56,4.89.46,6.13.65,12.28.77,18.43.3,15.36.25,15.27,15.81,15.26,3.12,0,4.12-1,4.06-4C238.76,250.34,238.84,245.19,238.84,240Zm63.76-41.66h.13c.09-1.65.21-3.31.29-5,.58-13.5-.89-14.62-14.43-11.73-2.47.53-3.29,1.55-3.28,3.94.05,6.63-.09,13.27-.1,19.91,0,12.85,0,12.78,13.15,11.38,2.47-.26,3.53-1.12,3.59-3.62C302.06,208.32,302.37,203.35,302.6,198.38ZM222.52,203h-.21c0-4-.13-8,0-12,.13-2.91-1.09-3.88-3.83-3.58a21,21,0,0,1-4.48.13c-4-.41-4.91,1.43-4.95,5.2-.19,19.13.17,38.24,1.3,57.33.12,2,.49,4,.58,5.95s1.32,2.43,3,2.37c1.94-.07,1.94-1.45,1.91-2.82q-.07-3.74-.21-7.48c-.32-8.13-.76-16.26-.9-24.4-.05-2.38,0-5.84,3.33-5.73,5,.15,4.54-2.81,4.44-6C222.44,209,222.52,206,222.52,203Zm123.7-16a239.27,239.27,0,0,0-10.41,23.74c-.53,1.44-1.08,3-.27,4.34,3.89,6.41,7.9,12.73,12,19.36,3.19-4.75,6-8.87,8.72-13,2.5-3.74,3-7.7.95-11.78C353.68,202.53,349.19,195.94,346.22,186.94ZM18.65,216c.66,0,1.33,0,2,0,10.68-.25,10.68-.25,10.58-11-.1-12.06-.1-11.95-12-11.95-14.58,0-11.82.59-11.92,12.32C7.22,216.3,7.36,216.3,18.65,216Zm125.11,12.15c2.32-.14,4.65-.16,7-.49,1.47-.2,3.94.62,4-1.73.14-3.21,1.31-8.46-1.12-9.26-4.88-1.6-3.44-4.73-3.9-7.7-.26-1.7,1.09-4.75-2-4.63-2.62.11-6.86-1-6.79,4.16,0,.73-.54,2.06-.94,2.1-6.42.71-4.73,5.5-4.72,9.32C135.33,228.39,135.38,228.39,143.76,228.16ZM357,264.39h.18a36.88,36.88,0,0,1,.06-5.95c.7-4.31-.51-6-5.24-5.61-2.43.21-2.7.84-2.68,2.76s-.28,3.71,2.76,3.1c1.44-.29,3.91-.7,3.92,1.62s-2.44,1.9-3.92,1.67c-2.31-.35-3.26.53-2.74,2.6,1,3.85-2.33,8.33,1.76,11.66.09.08.32,0,.48,0,3.75.51,6.1-.36,5.48-4.91A50.18,50.18,0,0,1,357,264.39Zm-3.3-15c2.71,1,4.43.8,4.4-2.76,0-2.35-.52-3.31-3-3.16-1.49.1-4.07.82-4.16-1.39-.12-2.82,2.67-1.5,4.24-1.82.63-.13,1.33.1,2,0,1.66-.2,1.3-1.69,1.54-2.72s.22-1.87-1-2.42c-3.79-1.65-6.72-.45-7.77,3.65-.52,2-.35,4.26-.53,6.4C349,248.36,349.21,251.1,353.67,249.35ZM245.07,136.09v.16c-2.32,0-4.65,0-7,0-1.09,0-1.92.47-2,1.74a1.88,1.88,0,0,0,1.66,2.12,55.27,55.27,0,0,0,12.91.78c1.65-.09,2.31-.92,2.32-2.55s-.85-2.33-2.47-2.28C248.73,136.13,246.9,136.09,245.07,136.09Zm25.28-1.39c-2.1,1.4-6.89-2.92-6.61,2.82.25,4.81,4.45,2.08,6.64,1.87,2.43-.24,7,1.76,7.09-1.9C277.63,132.65,272.76,136.07,270.35,134.7ZM352.41,286c2.37-.08,4.58.48,4.62-3,0-4.14-2.77-3.06-5-3.44-3.34-.56-2.7,1.69-2.91,3.6C348.76,286.16,350.47,286.34,352.41,286Zm-11.25-55.16c-1.9-3.15-3-6.14-5.88-8.2C334.63,231.62,334.63,231.62,341.16,230.84Zm18-7.07c-2.44,3-4.16,4.78-4.76,7.39C360.84,232.48,359,228.18,359.21,223.77Z"/><path class="cls-1" d="M365,234.62c-.13-20.66,1-41.32.2-62,0-1.12.06-3.12.5-3.24,5.08-1.4,3.2-5.4,3.22-8.5,0-4.42,1.56-6.65,6.4-6.9,7.82-.39,15.62-.83,23.47-.67,4.3.08,6.27,1.5,6.43,6.09.31,9.17.51,9.05,9.82,8.53,3-.17,4-1.19,4.09-4.16.18-8.5.63-17,1-25.47.08-2-.21-4,2.34-4.94,1.85-.68,1.13-2.59,1.15-4,.06-4.83,0-9.66,0-14.49,0-1.32-.1-3,1.76-3s1.73,1.68,1.74,3c0,5.33,0,10.66.08,16,0,1.49-.17,3.13,2.06,3.25,2.46.14,2-1.71,2.06-3.1.24-4.82.38-9.65.6-14.48.06-1.29,0-3.12,1.79-3,1.67.14,1.53,1.9,1.5,3.23-.09,4.83-.14,9.66-.31,14.49-.08,2.06.15,3.85,2.73,3.7,3.45-.2,4.07,1.92,4.41,4.67,3.38,26.93,6.88,53.85,10.17,80.8.51,4.16,1,6.94,6.43,7,6,.12,7.61,2.52,8.09,9,.16,2.2.38,4.44,2.54,5.65,4.11,2.28,4.85,6.21,4.89,10.27.17,16.49.19,33,.21,49.49,0,1.37.64,3.61-1.37,3.71-2.47.12-1.82-2.31-1.85-3.81-.25-15.83-.49-31.65-.59-47.48,0-4.27-.74-7.92-5.06-10-2.61-1.23-2.4-3.61-2.26-6,.3-5.36-1.32-7.61-6.59-7.9-11.31-.62-22.64-.81-34-1.22-1.75-.07-3,.3-3,2.32,0,1.82,1.22,2.16,2.63,2.31.83.09,1.66.1,2.49.19,2.64.29,5.56,0,7.85,1,2.94,1.36,1,4.85,1.81,7.29.64,2,1.23,4.06,3.37,4.64,3.5,1,3.48,3.32,3.27,6.18-.45,6.15-.6,12.31-1,18.46-.21,2.87.9,3.78,3.7,3.7,12.61-.38,10.78-.5,11.22,11.46.27,7.16.33,14.33.33,21.49,0,1.6,1.09,4.44-1.58,4.39-2.46-.05-1.55-2.89-1.62-4.55-.33-8.32-.68-16.65-.69-25,0-3.37-.93-4.67-4.49-4.7-10.76-.09-10.75-.22-10.12-11.15.17-3,.22-6,.45-9,.3-3.95.94-7.74-3.73-10.11-2-1-2.51-3.88-2.46-6.27.07-3.13-1.27-4.35-4.41-4.55a380.72,380.72,0,0,0-42.46-.82c-1.47.06-3.82-.73-4.14,1.56s1,4.15,3.32,5a10,10,0,0,0,2.44.49c9.53,1,12.41,4.1,12.24,13.68-.07,4.43-.48,8.58,4.85,10.69,1.77.7,2.28,3.24,2.18,5.3q-.6,13-1.38,25.95c-.07,1.23,0,3.11-1.85,3-2.25-.16-1.56-2.2-1.5-3.55.35-7.66.83-15.3,1.19-23,.14-3-.24-5.55-3.78-6.69-2.46-.79-3.34-3.17-3.41-5.64-.07-2.32.16-4.66.17-7,0-6.42-1.93-8.64-7.93-9.09-7.72-.58-10.42-3.2-10.32-11,.25-19.83.6-39.65,1.2-59.47.12-4.23-1-5.58-5.22-5.15-2.71.28-3.65.91-3.63,3.84.24,39.82-.07,79.64-1.62,119.44-.08,2.09.91,6-1.91,5.81-3.39-.23-1.51-4-1.41-6.19C364.49,274.61,364.88,254.62,365,234.62Zm52.47-32.43h1c0-8.81-.16-17.63.08-26.43.09-3.34-.49-4.74-4.24-4.59-9.64.37-19.3.46-29,.35-3.51,0-4.54,1.18-4.59,4.56-.3,17.8-.76,35.6-1.25,53.4-.08,2.67.51,3.87,3.54,3.82q14.73-.27,29.46,0c2.87.05,3.69-.9,3.77-3.67C416.52,220.47,417,211.33,417.42,202.19ZM421.65,182h-.08c-.51,13.13-.92,26.27-1.6,39.39-.18,3.49.92,4.68,4.39,4.67,6.82,0,13.67,0,20.45.63,4.11.36,4.74-1,4.26-4.64-3.25-24.56-6.29-49.14-9.52-73.71-1.31-10-1.46-9.85-11.74-10.93-3.6-.38-4.55.73-4.64,4.2C422.82,155.05,422.18,168.51,421.65,182Zm-35-13.71v-.09c3.66,0,7.33-.09,11,0,2.86.1,5-.27,4.54-3.95-.39-3.35.6-7.68-4.72-7.68-7,0-14,.21-20.94.78-4.81.39-3.91,4.52-4.1,7.73-.22,3.71,2.42,3.2,4.75,3.19C380.32,168.24,383.48,168.26,386.64,168.26Z"/><path class="cls-1" d="M77,280.36c0,5,.05,10,0,15,0,1.52.5,3.89-2,3.7-2-.15-1.45-2.27-1.47-3.68-.13-8.66-.39-17.32-.24-26,.07-3.92-1.29-4.88-5-4.31A79.56,79.56,0,0,1,56.3,266c-3,0-3.54,1.32-3.4,4,.44,8.32.71,16.64,1,25,0,1.54.81,4-1.4,4.17-2.76.21-2-2.53-2.09-4.16-.43-9.15-.62-18.31-1.15-27.45-.19-3.38.75-4.82,4.32-4.92,6.15-.17,12.3-.66,18.42-1.26,3-.29,4.32.49,4.38,3.64.11,5.15.51,10.3.78,15.46Z"/><path class="cls-1" d="M248.75,154.61a450.37,450.37,0,0,0-1.89,57.84c0,1.45.89,3.85-1.76,3.78-2-.06-1.64-2.22-1.69-3.6-.77-19.49.22-38.93,1.91-58.33.13-1.38.12-3.45,2.32-3C249.37,151.59,248.85,153.32,248.75,154.61Z"/><path class="cls-1" d="M265.43,183.6c0,9.33,0,18.67-.05,28,0,1.43.82,3.91-1.81,3.78-2.12-.11-1.43-2.32-1.42-3.68q0-28.5.14-57c0-1.53-.65-4,1.68-4s1.85,2.29,1.85,3.88q0,14.51,0,29Z"/><path class="cls-1" d="M254,172.48c-.2-4.52-.54-10.18-.64-15.83,0-1.56-1.27-4.25,1.54-4.36,2.3-.08,1.66,2.52,1.78,4,1.18,13.83.25,27.61-.79,41.4-.4,5.31-.4,10.64-.67,16-.07,1.34.64,3.54-1.61,3.46-2-.06-1.62-2.18-1.66-3.59-.32-10.84,1.06-21.61,1.64-32.41C253.72,178.61,253.82,176.11,254,172.48Z"/><path class="cls-1" d="M271.91,180.72c0-8.64,0-17.29,0-25.93,0-1.33-.69-3.45,1.65-3.4,1.75,0,1.58,1.85,1.6,3.14.34,17.45.66,34.91.16,52.36,0,1.26.12,3.08-1.76,3s-1.5-1.91-1.51-3.18q0-13,0-25.94Z"/><path class="cls-1" d="M375,276.16c0-7.14,0-14.27,0-21.41,0-1.35-.48-3.53,1.72-3.41s1.51,2.24,1.5,3.6q-.15,21.4-.44,42.81c0,1.41.35,3.55-1.65,3.59-2.45.05-1.82-2.26-1.83-3.78,0-7.14,0-14.27,0-21.41Z"/><path class="cls-1" d="M105.19,217.74c0,6.5,0,13,0,19.5,0,1.39.43,3.46-1.8,3.34-1.78-.09-1.41-2-1.43-3.24q-.33-19.49-.57-39c0-1.42-.32-3.43,1.91-3.29,1.71.1,1.59,1.86,1.59,3.18,0,6.5,0,13,0,19.49Z"/><path class="cls-1" d="M101.75,245.25c4.33,0,8.66,0,13,0,1.28,0,3-.32,3.08,1.57.08,1.53-1.43,1.6-2.58,1.71-9,.86-18,.64-27,.64-1.23,0-2.56-.25-2.59-1.7s1.42-1.65,2.58-1.66c4.5,0,9,0,13.49,0Z"/><path class="cls-1" d="M89.27,282.14c0,4.48,0,9,0,13.43,0,1.15-.15,2.53-1.82,2.3-1.21-.16-1.39-1.28-1.38-2.31.11-9,.21-17.91.37-26.87,0-1.14.17-2.5,1.77-2.48s1.69,1.36,1.7,2.51c0,4.47,0,8.95,0,13.42Z"/><path class="cls-1" d="M97.26,258.17c-3,0-6,0-8.94,0-1,0-2.06-.41-2.08-1.64S87.36,255,88.35,255q12.63-.57,25.28-1.08c1,0,2.17-.09,2.27,1.25.12,1.52-1.11,1.89-2.3,2-5.44.42-10.89.79-16.33,1.18Z"/><path class="cls-1" d="M96.08,282.2c0,4,0,8,0,12,0,1.29.17,2.93-1.79,2.93-1.66,0-1.57-1.53-1.58-2.61q-.06-12.47,0-24.94c0-1.15.09-2.56,1.74-2.45s1.6,1.45,1.6,2.63C96.09,273.89,96.08,278,96.08,282.2Z"/><path class="cls-1" d="M22.73,224.32c2.24.83,6.77-2.25,7.16,1.41.3,2.78-4.64,1.32-7.17,2.06-1.85.54-3.93.29-5.91.33-1.3,0-3,.23-3.19-1.47s1.55-1.81,2.84-1.93C18.43,224.54,20.41,224.46,22.73,224.32Z"/><path class="cls-1" d="M22.32,263.93c-2.08-.67-6.17,1.26-6.27-1.69-.13-3.48,3.9-1.3,6-1.78a24.79,24.79,0,0,1,5-.2c1.19,0,2.61,0,2.79,1.4s-1.24,1.77-2.39,1.9C25.8,263.75,24.14,263.81,22.32,263.93Z"/><path class="cls-1" d="M22.86,239.17c-2.49,0-3.49.06-4.48,0-1.2-.09-2.43-.38-2.23-2,.16-1.29,1.33-1.25,2.31-1.33,3.63-.28,7.26-.59,10.9-.83,1-.07,2.17-.22,2.46,1,.37,1.58-.91,1.94-2.08,2.12C27,238.62,24.18,239,22.86,239.17Z"/><path class="cls-1" d="M21.94,233.56c-2,0-4,0-6,0-1.09,0-2-.51-2-1.71s1-1.58,2.09-1.59l12-.11c1,0,2.18,0,2.28,1.34.12,1.57-1.13,1.8-2.35,1.87-2,.13-4,.23-6,.34Z"/><path class="cls-1" d="M23.84,270.82c-2.34-1.1-6.88,1.68-7-2-.09-3,4.45-1.58,6.8-1.44,2.8.15,7.81-2.08,8,1.71C31.72,272.2,26.57,269.84,23.84,270.82Z"/><path class="cls-1" d="M63.61,283.43c2.08.73,5.44-1.5,5.58,1.63.13,2.82-3.32,1.95-5.25,1.93s-5.35,1.17-5.36-1.68C58.56,282.08,62.11,284.52,63.61,283.43Z"/><path class="cls-1" d="M63,275.24c-1.67,0-2.84.06-4,0a1.61,1.61,0,0,1-1.65-1.54c0-.94.75-1.44,1.65-1.52a17.64,17.64,0,0,1,3.48-.07c1.83.24,5-1,5.13,1.36C67.74,276.78,64.27,274.64,63,275.24Z"/><path class="cls-1" d="M63.32,278.35c1.64.16,4.23-.89,4,1.55s-3.13,1.78-4.95,2c-1.55.16-4.13.42-3.9-1.78C58.8,277.19,61.75,279,63.32,278.35Z"/><path class="cls-1" d="M340.07,251.41c-1.76-.87-4.86,1.14-4.9-1.92,0-2.4,2.81-1.66,4.42-1.57,2,.1,5.32-.76,5.28,1.94S341.58,250.47,340.07,251.41Z"/><path class="cls-1" d="M339.39,289.31c-2-.55-5.12.86-5.12-1.85s3.07-1.57,4.83-1.62,4.43-.87,4.56,1.39C343.83,290.35,340.65,288.45,339.39,289.31Z"/><path class="cls-1" d="M340.63,242.29c-1.49-.23-3.84.6-3.92-1.71-.06-2,2.14-1.61,3.51-1.55s3.83-.8,3.9,1.62C344.18,242.71,342,242.1,340.63,242.29Z"/><path class="cls-1" d="M326,151.89c-.4,15.71-2.38,29-2,42.3,0,1.27.3,3-1.63,3s-1.82-1.74-1.79-3c.12-6,.11-12,.65-18a287.55,287.55,0,0,0,.85-39.92c-.06-1.44-1-3.94,1.42-4s1.71,2.45,1.8,4C325.66,142.3,325.88,148.29,326,151.89Z"/><path class="cls-1" d="M312.13,173.26A321.9,321.9,0,0,1,314,135.37c.17-1.55-.33-4,1.9-4,2.52.07,1.47,2.52,1.35,4-1.58,19.27-2.56,38.55-1.78,57.89.05,1.26.52,3.07-1.34,3.23-2.22.19-2-1.78-2-3.24C312.11,186.59,312.13,179.93,312.13,173.26Z"/><path class="cls-1" d="M334.16,163.48c0,9.48,0,19,0,28.44,0,1.37.61,3.5-1.52,3.61s-1.75-2-1.75-3.4q0-28.93.19-57.88c0-1.4-.37-3.53,1.78-3.38s1.46,2.29,1.47,3.67c.05,9.65,0,19.29,0,28.94Z"/><path class="cls-1" d="M32.34,150c1.35.47,3.88-.84,3.74,1.85-.11,2.07-2.3,1.44-3.66,1.41-1.51,0-4,.74-4.06-1.55S30.85,150.31,32.34,150Z"/><path class="cls-1" d="M32.89,148.3c-1.39-.21-3.56.5-3.58-1.6s2.14-1.62,3.53-1.61c1.23,0,3.09-.48,3.26,1.34C36.32,148.8,34.2,148.06,32.89,148.3Z"/><path class="cls-1" d="M18.24,196.41c1.48,0,3,0,4.45,0,1.33,0,2.91.05,2.87,1.86,0,1.44-1.4,1.65-2.59,1.66-3.3,0-6.6,0-9.89,0-1.2,0-2.57-.18-2.63-1.61-.07-1.81,1.51-1.88,2.84-1.91,1.65,0,3.3,0,4.95,0Z"/><path class="cls-1" d="M16,205.41c-1.48,0-3,.05-4.45,0-1.12,0-2.56,0-2.45-1.66.11-1.55,1.46-1.55,2.62-1.57,3.13,0,6.26-.1,9.39-.08,1.09,0,2.64-.22,2.7,1.38.08,1.87-1.56,1.78-2.86,1.82-1.65,0-3.3,0-4.95,0Z"/></g></g></g></svg>