<?xml version="1.0" encoding="UTF-8" standalone="no"?>
<!DOCTYPE svg PUBLIC "-//W3C//DTD SVG 1.1//EN" "http://www.w3.org/Graphics/SVG/1.1/DTD/svg11.dtd">
<svg width="100%" height="100%" viewBox="0 0 100 100" version="1.1" xmlns="http://www.w3.org/2000/svg" xmlns:xlink="http://www.w3.org/1999/xlink" xml:space="preserve" xmlns:serif="http://www.serif.com/" style="fill-rule:evenodd;clip-rule:evenodd;stroke-linejoin:round;stroke-miterlimit:2;">
    <g transform="matrix(1.05963,0,0,1.05963,-2.98137,-2.97656)">
        <path d="M79.268,59.36L79.432,58.208C80.037,54.096 77.846,50.049 74.073,48.307L64.18,43.69C63.45,43.351 62.794,42.873 62.246,42.284L58.031,37.752C57.052,36.7 55.984,35.736 54.838,34.871L45.956,28.164L45.105,18.812C44.947,17.084 44.189,15.464 42.963,14.236L42.775,14.049C40.681,11.951 37.521,11.303 34.77,12.406L32.467,13.327C32.13,13.462 31.805,13.627 31.498,13.82L21.26,3.583C20.654,2.977 19.657,2.977 19.051,3.583L3.582,19.051C2.995,19.638 2.973,20.595 3.531,21.208L12.005,30.515L11.869,30.652C9.75,32.775 9.75,36.264 11.869,38.387C12.893,39.412 14.286,39.988 15.736,39.986C15.755,39.986 15.775,39.984 15.796,39.984C15.777,41.454 16.353,42.871 17.393,43.91C18.418,44.936 19.81,45.512 21.26,45.509C21.28,45.509 21.299,45.508 21.319,45.508C21.319,45.53 21.319,45.553 21.319,45.575C21.319,48.57 23.783,51.034 26.777,51.034C26.779,51.034 26.782,51.034 26.784,51.034C26.803,51.034 26.823,51.032 26.843,51.032C26.843,51.051 26.843,51.07 26.843,51.089C26.843,54.089 29.312,56.558 32.312,56.558C33.272,56.558 34.216,56.305 35.048,55.824L37.267,58.262L37.5,77.179C37.5,77.18 37.5,77.181 37.5,77.182C37.5,80.18 39.968,82.648 42.966,82.648C44.104,82.648 45.214,82.293 46.14,81.632C47.136,83.234 48.894,84.21 50.78,84.21C51.917,84.21 53.027,83.855 53.953,83.194C55.414,85.543 58.439,86.431 60.938,85.244L60.938,86.553C60.94,89.552 63.408,92.018 66.406,92.018C68.499,92.018 70.416,90.817 71.328,88.933L78.577,96.246C78.87,96.543 79.27,96.71 79.688,96.71L79.742,96.71C80.177,96.695 80.587,96.498 80.871,96.168L96.496,78.033C97.034,77.409 96.99,76.461 96.397,75.889L79.268,59.36ZM35.931,15.307C37.524,14.669 39.352,15.044 40.565,16.258L40.752,16.446C41.462,17.157 41.901,18.094 41.993,19.095L42.515,24.837L40.069,22.391L40.011,22.333C39.64,21.962 39.105,21.802 38.591,21.908L34.721,21.908C33.106,21.908 31.776,20.578 31.776,18.963C31.776,17.761 32.512,16.675 33.627,16.229L35.931,15.307ZM14.079,36.176C13.171,35.266 13.171,33.771 14.079,32.861L19.603,27.337C20.042,26.897 20.639,26.65 21.26,26.65C22.546,26.65 23.604,27.708 23.604,28.994C23.604,29.615 23.357,30.212 22.918,30.651L17.393,36.176C16.483,37.084 14.989,37.083 14.079,36.176ZM19.603,41.7C18.695,40.79 18.695,39.295 19.603,38.386L25.127,32.861C25.567,32.422 26.163,32.175 26.785,32.175C28.07,32.175 29.128,33.233 29.128,34.519C29.128,35.14 28.881,35.737 28.442,36.176L22.918,41.7C22.008,42.608 20.513,42.608 19.603,41.7ZM26.785,47.911C26.785,47.911 26.785,47.911 26.784,47.911C25.499,47.911 24.441,46.853 24.441,45.567C24.441,44.946 24.688,44.349 25.127,43.91L30.652,38.386C31.091,37.946 31.688,37.699 32.309,37.699C33.595,37.699 34.653,38.757 34.653,40.043C34.653,40.664 34.406,41.261 33.966,41.7L28.442,47.225C28.003,47.665 27.406,47.912 26.785,47.91L26.785,47.911ZM32.309,53.435C31.023,53.435 29.965,52.377 29.965,51.092C29.965,50.47 30.212,49.874 30.652,49.434L36.176,43.91C36.615,43.471 37.212,43.223 37.833,43.223C39.119,43.223 40.177,44.282 40.177,45.567C40.177,46.189 39.93,46.785 39.49,47.225L33.966,52.749C33.528,53.19 32.931,53.437 32.309,53.435L32.309,53.435ZM68.75,86.554C68.75,87.839 67.692,88.897 66.406,88.897C65.121,88.897 64.063,87.839 64.063,86.554L64.063,71.71C64.063,70.853 63.357,70.147 62.5,70.147C61.643,70.147 60.938,70.853 60.938,71.71L60.938,80.304C60.938,81.589 59.879,82.647 58.594,82.647C57.308,82.647 56.25,81.589 56.25,80.304L56.25,70.147C56.25,69.29 55.545,68.585 54.688,68.585C53.83,68.585 53.125,69.29 53.125,70.147L53.125,78.741C53.125,80.027 52.067,81.085 50.781,81.085C49.496,81.085 48.438,80.027 48.438,78.741L48.438,68.585C48.438,67.728 47.732,67.022 46.875,67.022C46.018,67.022 45.313,67.728 45.313,68.585L45.313,77.179C45.313,78.464 44.254,79.522 42.969,79.522C41.683,79.522 40.625,78.464 40.625,77.179L40.385,57.626C40.379,57.244 40.234,56.878 39.978,56.596L37.386,53.749L41.699,49.434C42.725,48.409 43.302,47.017 43.302,45.567C43.302,42.569 40.835,40.101 37.837,40.101C37.817,40.101 37.796,40.102 37.775,40.102C37.775,40.082 37.777,40.063 37.777,40.043C37.777,40.042 37.777,40.041 37.777,40.041C37.777,37.044 35.311,34.578 32.314,34.578C32.293,34.578 32.271,34.578 32.249,34.578C32.25,34.556 32.25,34.533 32.25,34.51C32.25,31.517 29.787,29.054 26.793,29.054C26.771,29.054 26.748,29.054 26.725,29.054C26.725,29.033 26.726,29.012 26.726,28.99C26.726,25.992 24.258,23.525 21.26,23.525C19.81,23.525 18.418,24.102 17.393,25.128L14.219,28.303L6.847,20.206L20.156,6.897L29.367,16.108C29.187,16.445 29.039,16.798 28.925,17.162C28.744,17.746 28.652,18.353 28.652,18.963C28.652,22.293 31.392,25.033 34.722,25.033L38.292,25.033L43.358,30.1C43.405,30.146 43.454,30.188 43.505,30.228C43.511,30.232 43.516,30.238 43.522,30.242L52.956,37.363C53.957,38.119 54.889,38.96 55.743,39.878L59.959,44.411C60.78,45.295 61.765,46.012 62.859,46.521L72.751,51.138C75.277,52.303 76.744,55.013 76.339,57.765L76.253,58.367L70.313,58.367C69.455,58.367 68.75,59.072 68.75,59.929L68.75,86.554ZM79.607,92.847L71.875,85.045L71.875,61.493L76.977,61.493L93.164,77.111L79.607,92.847Z" style="fill-rule:nonzero;"/>
        <path d="M61.395,31.543C61.102,31.836 60.937,32.234 60.937,32.648C60.937,33.062 61.102,33.46 61.395,33.753L66.083,38.44C66.376,38.733 66.773,38.898 67.188,38.898C68.045,38.898 68.75,38.193 68.75,37.335C68.75,36.921 68.585,36.523 68.292,36.23L63.605,31.543C63.312,31.25 62.914,31.085 62.5,31.085C62.086,31.085 61.688,31.25 61.395,31.543Z" style="fill-rule:nonzero;"/>
        <path d="M55.145,25.293C54.852,25.586 54.687,25.984 54.687,26.398C54.687,26.812 54.852,27.21 55.145,27.503L56.708,29.065C57.001,29.358 57.398,29.523 57.813,29.523C58.67,29.523 59.375,28.818 59.375,27.96C59.375,27.546 59.21,27.148 58.917,26.855L57.355,25.293C57.062,25 56.664,24.835 56.25,24.835C55.836,24.835 55.438,25 55.145,25.293Z" style="fill-rule:nonzero;"/>
    </g>
</svg>
