<?xml version="1.0" encoding="utf-8"?>
<!-- Generator: Adobe Illustrator 25.1.0, SVG Export Plug-In . SVG Version: 6.00 Build 0)  -->
<svg version="1.1" id="Layer_1" xmlns="http://www.w3.org/2000/svg" xmlns:xlink="http://www.w3.org/1999/xlink" x="0px" y="0px"
	 viewBox="0 0 48 49" style="enable-background:new 0 0 48 49;" xml:space="preserve">
<style type="text/css">
	.st0{fill:#D02144;stroke:#D02144;stroke-width:0.25;}
</style>
<path class="st0" d="M24.4,14.2L24.4,14.2c0,0.7,0.6,1.2,1.2,1.2c0,0,0.1,0,0.1,0l0,0l0,0c0.7,0,1.2-0.6,1.2-1.3l0,0L26.1,2l0,0
	c0-0.7-0.7-1.2-1.3-1.2l0,0c-0.7,0-1.2,0.6-1.2,1.3v0L24.4,14.2z"/>
<path class="st0" d="M30.1,14.5L30.1,14.5l1.4-3.9l0,0c0.2-0.6,1-1,1.6-0.7c0.6,0.2,1,1,0.7,1.6v0l-1.4,3.9L30.1,14.5z M30.1,14.5
	c-0.2,0.6,0.1,1.4,0.7,1.6L30.1,14.5z"/>
<path class="st0" d="M16.8,11.1L16.8,11.1c-0.3-0.6-0.1-1.4,0.6-1.7L16.8,11.1z M16.8,11.1l2.6,5.2c0.2,0.4,0.7,0.7,1.1,0.7
	c0.2,0,0.4,0,0.6-0.1c0.6-0.3,0.9-1.1,0.6-1.7l0,0L19,10v0 M16.8,11.1L19,10 M19,10c-0.3-0.6-1.1-0.9-1.7-0.6L19,10z"/>
<path class="st0" d="M20.2,34.6l0.4-0.4c0,0,0,0,0,0c0.6-0.6,1.3-1,2.2-1l0,0c0.8,0,1.6,0.3,2.2,0.8c1.3,1.2,1.3,3.2,0.2,4.4l0,0v0
	c-1.4,1.4-3.2,3.3-4.7,5c-0.8,0.9-1.5,1.7-2,2.4c-0.6,0.7-0.9,1.2-1.1,1.5l0,0c-0.2,0.4-0.7,0.7-1.1,0.7h0c-0.2,0-0.4,0-0.5-0.1
	 M20.2,34.6l-4.5,13.2 M20.2,34.6l2.2-9.9v0c0.4-1.7-0.7-3.4-2.4-3.7h0c-0.4-0.1-0.7-0.1-1.1,0c-0.2-1.2-1.1-2.3-2.4-2.6h0
	c-1.3-0.3-2.6,0.3-3.3,1.3c-0.3-0.1-0.5-0.3-0.8-0.3h0c-1.7-0.4-3.4,0.7-3.7,2.4 M20.2,34.6L3.5,43.5l0.1,0c0,0,0,0,0,0
	c0.2,0.7-0.2,1.3-0.9,1.5 M15.6,48l0.1-0.1 M15.6,48L15.6,48l0.1-0.1 M15.6,48c-0.6-0.3-0.9-1-0.6-1.7l0,0c0.3-0.5,0.9-1.3,1.6-2.3
	c0.8-0.9,1.7-2,2.6-3c1.9-2,3.7-3.9,4.1-4.3 M15.6,47.9c-0.6-0.3-0.8-0.9-0.5-1.5c1-2,7.6-8.8,8.3-9.5c0.3-0.3,0.3-0.8-0.1-1.1
	 M23.3,36.8C23.3,36.8,23.3,36.8,23.3,36.8L23.3,36.8L23.3,36.8C23.3,36.8,23.3,36.8,23.3,36.8z M23.3,36.8c0.2-0.2,0.2-0.6-0.1-0.9
	 M23.3,35.9C23.3,35.9,23.3,35.9,23.3,35.9L23.3,35.9 M23.3,35.9C23.3,35.9,23.3,35.9,23.3,35.9L23.3,35.9 M23.3,35.9
	c-0.1-0.1-0.3-0.2-0.5-0.2 M23.3,35.8c-0.2-0.1-0.3-0.2-0.6-0.2 M22.8,35.6l0,0.1c0,0,0,0,0,0 M22.8,35.6l0,0.1c0,0,0,0,0,0
	 M22.8,35.6l-5.1,4.5l0,0c0,0,0,0,0,0c0,0,0,0,0,0c0,0,0,0,0,0l0,0c0,0,0,0,0,0c0,0,0,0,0,0c0,0,0,0,0,0c0,0,0,0,0,0 M22.8,35.7
	c-0.2,0-0.3,0.1-0.4,0.2l-3.5,3.8l0,0c0,0-0.1,0-0.1,0.1c0,0,0,0,0,0l-0.1-0.1l0.1,0.1c0,0-0.1,0.1-0.1,0.1c0,0,0,0,0,0
	c-0.3,0.2-0.6,0.3-0.9,0.2 M17.7,40.1C17.7,40.1,17.7,40.1,17.7,40.1C17.7,40.1,17.7,40.1,17.7,40.1L17.7,40.1 M17.7,40.1
	C17.7,40.1,17.7,40.1,17.7,40.1C17.7,40.1,17.7,40.1,17.7,40.1 M17.7,40.1C17.7,40.1,17.7,40.1,17.7,40.1
	C17.7,40.1,17.7,40.1,17.7,40.1C17.7,40.1,17.7,40.1,17.7,40.1L17.7,40.1 M17.7,40.1C17.7,40.1,17.7,40.1,17.7,40.1
	C17.7,40.1,17.7,40.1,17.7,40.1L17.7,40.1 M17.7,40.1L17.7,40.1 M17.7,40.1C17.7,40.1,17.7,40.1,17.7,40.1L17.7,40.1L17.7,40.1
	 M17.7,40.1l0-0.1l0,0L17.7,40.1 M17.7,40L17.7,40 M17.7,40L17.7,40L17.7,40 M17.7,40.1L17.7,40.1 M17.7,40.1L17.7,40.1
	C17.7,40.1,17.7,40.1,17.7,40.1 M8.7,21.7L8.7,21.7l0.1,0L8.7,21.7z M8.7,21.7L8.7,21.7 M8.7,21.7c-0.2-0.1-0.4-0.2-0.7-0.2l0,0
	c-1.7-0.4-3.4,0.7-3.7,2.3 M8.7,21.7l0,0.1c-0.2-0.1-0.4-0.2-0.7-0.2c-1.6-0.4-3.2,0.7-3.6,2.2 M8.7,21.7c0,0,0.1,0,0.1,0.1
	L1.4,44.1 M4.3,23.8c0,0.1-1.7,6.6-2.8,11.6l0.1,0 M4.3,23.8C4.3,23.8,4.3,23.8,4.3,23.8l0.1,0 M4.3,23.8
	C4.3,23.8,4.3,23.8,4.3,23.8l0.1,0 M1.6,35.4l-0.1,0c-1.2,5.2-0.3,8.6-0.2,8.8 M1.6,35.4c-1.2,5.2-0.3,8.6-0.2,8.7 M1.6,35.4
	c1.1-5,2.8-11.5,2.8-11.6 M1.2,44.1C1.4,44.7,1.9,45,2.4,45c0.1,0,0.2,0,0.3,0 M1.2,44.1C1.2,44.1,1.2,44.1,1.2,44.1l0.1,0
	 M1.2,44.1C1.2,44.1,1.2,44.1,1.2,44.1l0.1,0 M2.8,45l0-0.1L2.8,45C2.8,45,2.8,45,2.8,45z M14.8,23.1L14.8,23.1L14.8,23.1
	C14.8,23.1,14.8,23.1,14.8,23.1C14.8,23,14.8,23.1,14.8,23.1C14.8,23.1,14.8,23.1,14.8,23.1C14.8,23.1,14.8,23.1,14.8,23.1
	 M14.8,23.1L14.8,23.1 M14.8,23.1L14.8,23.1L14.8,23.1L14.8,23.1C14.8,23.1,14.8,23.1,14.8,23.1L14.8,23.1L14.8,23.1
	C14.8,23.1,14.8,23.1,14.8,23.1L14.8,23.1L14.8,23.1z M14.8,23.1C14.8,23.1,14.8,23.1,14.8,23.1L14.8,23.1l-0.1,0L14.8,23.1
	L14.8,23.1z M16.5,21.6L16.5,21.6c0.1-0.3-0.1-0.7-0.5-0.8c-0.3-0.1-0.7,0.1-0.8,0.5L16.5,21.6z M16.5,21.6L14,32.7v0 M16.5,21.6
	L14,32.7 M14,32.7c-0.2,0.7,0.3,1.3,0.9,1.5 M14,32.7l0.9,1.5 M16.7,39L16.7,39c0-0.1,0-0.2,0-0.3 M16.7,39l0-0.4c0,0,0,0,0,0
	c0,0,0,0.1,0,0.1c0,0,0,0,0,0c0,0,0,0,0,0 M16.7,39c0,0,0,0.1,0,0.1c0,0,0,0,0,0c0,0.1,0.1,0.2,0.1,0.3v0l0,0 M16.7,39l0.2,0.5
	 M16.7,38.7C16.7,38.7,16.7,38.7,16.7,38.7l0.1,0L16.7,38.7C16.7,38.7,16.7,38.7,16.7,38.7z M16.9,39.5
	C16.9,39.5,16.9,39.5,16.9,39.5 M16.9,39.5L16.9,39.5 M14.9,34.2C14.9,34.2,15,34.2,14.9,34.2c0.1,0,0.1,0,0.1,0c0,0,0,0,0,0
	c0,0,0,0,0,0l0,0c0,0,0,0,0.1,0c0.7,0.2,1.3-0.3,1.5-0.9v0l2.1-9.3c0.1-0.3,0.4-0.6,0.8-0.5c0.3,0.1,0.6,0.4,0.5,0.8L14.9,34.2z
	 M16.9,39.5C16.9,39.6,16.9,39.6,16.9,39.5 M16.9,39.5L16.9,39.5 M16.9,39.6C16.9,39.6,16.9,39.6,16.9,39.6
	C17,39.6,17,39.6,16.9,39.6c0.1,0.1,0.1,0.2,0.2,0.2L16.9,39.6z M17.2,39.9C17.2,39.9,17.2,39.9,17.2,39.9l0.1-0.1L17.2,39.9
	C17.2,39.9,17.2,39.9,17.2,39.9z M3.8,35.9l0.1,0l0,0L3.8,35.9z M12.4,22.5C12.4,22.5,12.4,22.5,12.4,22.5l0.1,0L12.4,22.5
	L12.4,22.5z M11.2,33.4C11.2,33.4,11.2,33.4,11.2,33.4C11.2,33.4,11.2,33.4,11.2,33.4l0-0.1L11.2,33.4z M12.3,22L12.3,22l0.1-0.1
	L12.3,22z M8,24.9L8,24.9C8,24.9,8,24.9,8,24.9l0.1,0L8,24.9z M8,24.6C8,24.6,8,24.6,8,24.6C8,24.6,8,24.6,8,24.6l0.1,0L8,24.6z
	 M7.5,23.9C7.5,23.9,7.5,23.9,7.5,23.9C7.5,23.9,7.5,23.9,7.5,23.9l0-0.1L7.5,23.9z M13.3,19.8c-0.3-0.2-0.6-0.3-0.9-0.4L13.3,19.8z
	 M12.4,19.4L12.4,19.4L12.4,19.4z"/>
<path class="st0" d="M36.8,20.9c0.2-0.1,0.4-0.2,0.6-0.3l0,0c1.6-0.6,3.4,0.2,4,1.8c0.1,0.2,2.6,6.3,4.3,11l-0.1,0l0.1,0
	c1.9,5,1.4,8.5,1.4,8.7l0,0c-0.1,0.6-0.6,1.1-1.2,1.1c-0.1,0-0.1,0-0.2,0l0,0c-0.7-0.1-1.2-0.7-1.1-1.4L36.8,20.9z M36.8,20.9
	L36.8,20.9L36.8,20.9c-0.3-0.8-0.9-1.4-1.6-1.8c-0.8-0.3-1.6-0.4-2.4-0.1c-0.3,0.1-0.5,0.3-0.8,0.4c-0.8-0.9-2.2-1.3-3.4-0.8l0,0
	c-1.3,0.5-2,1.7-2,2.9c-0.4,0-0.7,0.1-1,0.2c-0.8,0.3-1.4,0.9-1.8,1.6c-0.3,0.8-0.4,1.6-0.1,2.4v0l4.3,11.5c0,0,0,0,0,0
	c0,0-0.1,0.1-0.1,0.1c-0.4,0.5-0.4,1.3,0.2,1.8h0l1.2,1l0,0L36.8,20.9z M34.6,39.3L34.6,39.3c0.3,0.6,0,1.4-0.6,1.6
	c-0.5,0.2-1.1,0.3-1.6,0.3c-1.8,0-3.2-1.2-3.3-1.2L34.6,39.3z M34.6,39.3c-0.3-0.6-1-0.9-1.6-0.6l0,0 M34.6,39.3l-1.6-0.6
	 M32.9,38.7c-0.3,0.2-0.7,0.1-1.1,0c-0.3-0.1-0.7-0.3-0.9-0.4l-5-13.4c0,0,0,0,0,0c-0.1-0.2-0.1-0.3,0-0.5l0,0 M32.9,38.7L26,24.4
	 M26,24.4c0.1-0.2,0.2-0.3,0.4-0.3l0,0 M26,24.4l0.4-0.3 M26.4,24.1L26.4,24.1 M26.4,24.1L26.4,24.1 M26.4,24.1
	c0.2-0.1,0.3-0.1,0.5,0c0.2,0.1,0.3,0.2,0.3,0.4l3.3,9l0,0c0.2,0.6,1,1,1.6,0.7l0,0 M26.4,24.1l5.8,10.1 M32.1,34.1L32.1,34.1
	 M32.1,34.1L32.1,34.1 M32.1,34.1C32.1,34.1,32.2,34.1,32.1,34.1C32.2,34.1,32.2,34.1,32.1,34.1C32.2,34.1,32.2,34.1,32.1,34.1
	C32.2,34.1,32.2,34.1,32.1,34.1L32.1,34.1c0.1,0,0.1-0.1,0.2-0.1l0,0 M32.1,34.1l0.2-0.1 M32.3,34.1L32.3,34.1 M32.3,34.1L32.3,34.1
	 M32.3,34.1c0.6-0.2,1-1,0.7-1.6l0,0 M32.3,34.1l0.7-1.6 M33,32.5l-4-10.7v0 M33,32.5l-4-10.7 M29,21.8c-0.1-0.3,0-0.7,0.4-0.8
	c0.3-0.1,0.7,0,0.8,0.4v0 M29,21.8l1.2-0.4 M30.3,21.3l0.6,1.7c0,0,0,0,0,0c0,0,0,0,0,0l3.3,9c0.2,0.6,1,1,1.6,0.7
	c0.6-0.2,1-1,0.7-1.6v0 M30.3,21.3l6.3,9.8 M36.6,31.2l-3.3-9c0,0,0,0,0,0c-0.1-0.2-0.1-0.3,0-0.5c0.1-0.2,0.2-0.3,0.4-0.3l0,0
	 M36.6,31.2l-3-9.8 M33.6,21.4c0.2-0.1,0.3-0.1,0.5,0c0.2,0.1,0.3,0.2,0.3,0.4l0,0l3.3,9v0c0.2,0.5,0.7,0.8,1.2,0.8
	c0.1,0,0.3,0,0.4-0.1 M33.6,21.4l5.8,10.1 M39.4,31.4c0.6-0.2,1-1,0.7-1.6l0,0L37.9,24L39.4,31.4z M30.9,23L30.9,23L30.9,23z
	 M37.8,23.7c-0.1-0.4,0.1-0.8,0.5-1l0.7,8.6c0.1,0,0.3,0,0.4-0.1c0.6-0.2,0.9-0.9,0.7-1.4L37.8,24c0,0,0,0,0-0.1
	C37.8,23.9,37.8,23.8,37.8,23.7z"/>
<path class="st0" d="M33.5,47.9c0.6-0.4,0.7-1.2,0.3-1.7l0,0c-0.4-0.7-1.6-2-6.8-6.2c-0.5-0.4-1.3-0.3-1.7,0.2l0,0l0,0
	c-0.4,0.5-0.3,1.3,0.2,1.7l0.1-0.1l-0.1,0.1c2.4,1.9,3.9,3.2,4.8,4.1c0.9,0.9,1.3,1.3,1.5,1.5v0c0.2,0.4,0.6,0.6,1,0.6
	C33,48.1,33.3,48,33.5,47.9z M33.5,47.9l-0.1-0.1L33.5,47.9C33.5,47.9,33.5,47.9,33.5,47.9z"/>
<path class="st0" d="M34.1,35.7L34.1,35.7c2.2-0.1,4.1,1.1,5.5,2.4c1.4,1.3,2.3,2.7,2.4,2.8l0,0c0.3,0.5,0.2,1.1-0.3,1.4l0,0
	l-0.1-0.1c-0.1,0.1-0.3,0.1-0.5,0.1c-0.3,0-0.6-0.1-0.7-0.4L34.1,35.7z M34.1,35.7c-0.5,0-1,0.5-0.9,1.1L34.1,35.7z"/>
</svg>
