<svg width="60" height="60" viewBox="0 0 60 60" fill="none" xmlns="http://www.w3.org/2000/svg">
<path d="M30 0C13.458 0 0 13.458 0 30C0 46.542 13.458 60 30 60C46.542 60 60 46.542 60 30C60 13.458 46.542 0 30 0ZM30 54C16.767 54 6 43.233 6 30C6 16.767 16.767 6 30 6C43.233 6 54 16.767 54 30C54 43.233 43.233 54 30 54Z" fill="#CF2045"/>
<path d="M32.9486 17.9743C32.9486 16.3316 31.617 15 29.9743 15V15C28.3316 15 27 16.3316 27 17.9743V29.5145C27 30.5727 27.4193 31.5877 28.166 32.3374L34.6832 38.8805C35.8478 40.0497 37.7409 40.0497 38.9055 38.8805V38.8805C40.0636 37.7178 40.0636 35.8375 38.9055 34.6748L34.1146 29.8649C33.3678 29.1152 32.9486 28.1002 32.9486 27.0421V17.9743Z" fill="#CF2045"/>
</svg>
