<svg width="24" height="24" viewBox="0 0 24 24" fill="none" xmlns="http://www.w3.org/2000/svg">
<path d="M21 24H3C1.344 24 0 22.656 0 21V3C0 1.344 1.344 0 3 0H21C22.656 0 24 1.344 24 3V21C24 22.656 22.656 24 21 24Z" fill="#1D9BF0"/>
<path d="M9.21586 18.0958C14.8739 18.0958 17.9699 13.4038 17.9699 9.34181C17.9699 9.20981 17.9699 9.07781 17.9639 8.94581C18.5639 8.51381 19.0859 7.96781 19.4999 7.34981C18.9479 7.59581 18.3539 7.75781 17.7299 7.83581C18.3659 7.45781 18.8519 6.85181 19.0859 6.13181C18.4919 6.48581 17.8319 6.73781 17.1299 6.87581C16.5659 6.27581 15.7679 5.90381 14.8859 5.90381C13.1879 5.90381 11.8079 7.28381 11.8079 8.98181C11.8079 9.22181 11.8379 9.45581 11.8859 9.68381C9.32986 9.55781 7.06186 8.32781 5.54386 6.46781C5.27986 6.92381 5.12986 7.45181 5.12986 8.01581C5.12986 9.08381 5.67586 10.0258 6.49786 10.5778C5.99386 10.5598 5.51986 10.4218 5.10586 10.1938C5.10586 10.2058 5.10586 10.2178 5.10586 10.2358C5.10586 11.7238 6.16786 12.9718 7.57186 13.2538C7.31386 13.3258 7.04386 13.3618 6.76186 13.3618C6.56386 13.3618 6.37186 13.3438 6.18586 13.3078C6.57586 14.5318 7.71586 15.4198 9.05986 15.4438C8.00386 16.2718 6.67786 16.7638 5.23786 16.7638C4.99186 16.7638 4.74586 16.7518 4.50586 16.7218C5.86186 17.5858 7.48186 18.0958 9.21586 18.0958Z" fill="white"/>
</svg>
