<svg width="2875" height="688" viewBox="0 0 2875 688" xmlns="http://www.w3.org/2000/svg">
<path d="M308.374 502.042C318.591 502.042 327.786 510.246 327.786 521.525C327.786 531.78 319.612 541.009 308.374 541.009C298.157 541.009 288.962 532.805 288.962 521.525C288.962 510.246 298.157 502.042 308.374 502.042ZM608.744 383.093C598.527 383.093 589.332 374.89 589.332 363.61C589.332 353.356 597.505 344.127 608.744 344.127C618.96 344.127 628.155 352.331 628.155 363.61C628.155 373.865 618.96 383.093 608.744 383.093ZM608.744 304.136C576.05 304.136 549.487 330.797 549.487 363.61C549.487 369.763 550.509 375.916 552.552 382.068L357.414 486.661C346.176 470.254 327.786 461.026 308.374 461.026C285.897 461.026 265.464 474.356 255.247 493.839L79.521 401.551C61.131 391.297 46.8277 361.56 48.8711 332.848C49.8927 318.492 55.0011 307.212 62.1527 303.111C67.261 300.034 72.3694 301.06 79.521 304.136C126.518 328.746 279.767 409.754 285.897 412.831C296.114 416.932 301.222 418.983 318.591 410.78L633.263 246.712C638.372 244.661 643.48 240.56 643.48 233.382C643.48 224.153 634.285 220.051 634.285 220.051C615.895 211.848 588.31 198.517 561.747 186.212C504.534 159.551 439.147 128.789 410.541 113.407C386.021 100.077 365.587 111.356 362.522 113.407C232.771 179.034 53.9794 267.221 43.7627 273.373C26.3944 283.627 15.1561 305.161 14.1345 331.822C12.0911 373.865 33.5461 417.958 64.196 433.339L250.139 529.729C254.226 558.441 279.767 581 308.374 581C341.067 581 366.609 555.364 367.631 522.551L571.964 411.805C582.18 420.009 595.462 424.11 608.744 424.11C641.437 424.11 668 397.449 668 364.636C668 330.797 641.437 304.136 608.744 304.136Z" fill="#346DDB"/>
<path d="M2324 354.2V185L2246 185.008V503H2324V429.2L2338.21 412.116L2397.2 503H2486L2396.09 365.462L2481.2 263H2394.31L2324 354.2Z" fill="#346DDB"/>
<path d="M2102.18 508.096C2177.66 508.096 2224.75 462.542 2224.75 382.438C2224.75 303.874 2177 257 2102.18 257C2027.79 257 1979.6 304.094 1979.6 382.438C1979.6 462.322 2026.69 508.096 2102.18 508.096ZM2102.18 450.879C2075.33 450.879 2058.82 426.451 2058.82 382.658C2058.82 339.525 2075.77 314.217 2102.18 314.217C2128.81 314.217 2145.75 339.525 2145.75 382.658C2145.75 426.451 2128.81 450.879 2102.18 450.879Z" fill="#346DDB"/>
<path d="M1842.2 508.285C1917.68 508.285 1964.77 462.731 1964.77 382.627C1964.77 304.063 1917.02 257.189 1842.2 257.189C1767.81 257.189 1719.62 304.283 1719.62 382.627C1719.62 462.511 1766.71 508.285 1842.2 508.285ZM1842.2 451.067C1815.35 451.067 1798.84 426.64 1798.84 382.847C1798.84 339.714 1815.79 314.406 1842.2 314.406C1868.82 314.406 1885.77 339.714 1885.77 382.847C1885.77 426.64 1868.82 451.067 1842.2 451.067Z" fill="#346DDB"/>
<path d="M1593.8 503C1661.8 503 1704.54 466.685 1704.54 411.008C1704.54 368.755 1670.65 335.781 1627.74 333.8C1662.95 328.959 1689.79 299.875 1689.79 264.224C1689.79 215.149 1652.16 185 1589.66 185H1442V503H1593.8ZM1522.76 242.217H1568.32C1595.39 242.217 1611.23 255.421 1611.23 277.648C1611.23 300.535 1593.63 314.399 1564.36 314.399H1522.76V242.217ZM1522.76 445.339V363.474H1570.3C1603.53 363.474 1622.45 377.998 1622.45 403.966C1622.45 430.814 1603.97 445.339 1570.74 445.339H1522.76Z" fill="#346DDB"/>
<path d="M1299.37 209.215V263H1266.8V320.348H1299.37V436.763C1299.37 483.857 1323.62 504.8 1385.9 504.8C1401.08 504.8 1412.92 501.683 1420.41 500.142V444.686C1415.79 445.566 1411.16 445.786 1405 445.786C1386.3 445.786 1377.49 437.423 1377.49 420.918V320.348H1420.4V263H1377.49V209.215H1299.37Z" fill="#346DDB"/>
<path d="M1167.2 503H1245.2V263.001H1167.2V503Z" fill="#346DDB"/>
<path d="M1246.4 206.117C1246.4 227.917 1228.66 246.2 1206.08 246.2C1183.74 246.2 1166 227.917 1166 206.117C1166 184.083 1183.74 165.8 1206.08 165.8C1228.66 165.8 1246.4 184.083 1246.4 206.117Z" fill="#346DDB"/>
<path d="M1138.4 449.841V329.935H1008.85V387.535H1060.4V425.935C1047.2 437.241 1037 442.881 1002.47 442.881C956.034 442.881 926.105 404.809 926.105 341.87C926.105 280.031 953.173 244.161 998.947 244.161C1029.98 244.161 1052.48 261.326 1060.4 289.494H1138.4C1130.26 224.795 1075.75 179.241 998.727 179.241C902.778 179.241 848 239.809 848 342.8C848 447.112 902.778 507.8 1000.71 507.8C1087.34 507.8 1122.8 475.641 1138.4 449.841Z" fill="#346DDB"/>
</svg>