<svg width="224" height="160" viewBox="0 0 224 160" fill="none" xmlns="http://www.w3.org/2000/svg">
<g opacity="0.1">
<path d="M48.6318 63.68C46.2531 63.68 43.9704 64.0427 41.6984 64.3733C42.4344 61.8987 43.1918 59.3813 44.4078 57.12C45.6238 53.8347 47.5224 50.9867 49.4104 48.1173C50.9891 45.0133 53.7731 42.912 55.8211 40.256C57.9651 37.6747 60.8878 35.9573 63.2024 33.8133C65.4744 31.5733 68.4504 30.4533 70.8184 28.8747C73.2931 27.456 75.4478 25.888 77.7518 25.1413L83.5011 22.7733L88.5571 20.672L83.3838 0L77.0158 1.536C74.9784 2.048 72.4931 2.64533 69.6664 3.36C66.7758 3.89333 63.6931 5.35466 60.2584 6.688C56.8664 8.20266 52.9411 9.22667 49.2931 11.6587C45.6238 13.984 41.3891 15.9253 37.6558 19.04C34.0398 22.2507 29.6771 25.0347 26.4558 29.12C22.9358 32.9387 19.4584 36.9493 16.7598 41.5147C13.6344 45.8667 11.5118 50.6453 9.27176 55.3707C7.24509 60.096 5.61309 64.928 4.27976 69.6213C1.75176 79.0293 0.621091 87.968 0.183757 95.616C-0.178909 103.275 0.034424 109.643 0.482424 114.251C0.642424 116.427 0.941092 118.539 1.15442 120L1.42109 121.792L1.69842 121.728C3.59561 130.59 7.963 138.734 14.2954 145.218C20.6277 151.702 28.6663 156.26 37.4812 158.366C46.2962 160.472 55.5272 160.039 64.1065 157.118C72.6858 154.197 80.2627 148.907 85.9609 141.859C91.6591 134.811 95.2456 126.295 96.3055 117.294C97.3655 108.293 95.8556 99.1761 91.9505 90.9976C88.0454 82.819 81.9047 75.9132 74.2387 71.0789C66.5727 66.2446 57.6947 63.6794 48.6318 63.68V63.68ZM165.965 63.68C163.586 63.68 161.304 64.0427 159.032 64.3733C159.768 61.8987 160.525 59.3813 161.741 57.12C162.957 53.8347 164.856 50.9867 166.744 48.1173C168.322 45.0133 171.106 42.912 173.154 40.256C175.298 37.6747 178.221 35.9573 180.536 33.8133C182.808 31.5733 185.784 30.4533 188.152 28.8747C190.626 27.456 192.781 25.888 195.085 25.1413L200.834 22.7733L205.89 20.672L200.717 0L194.349 1.536C192.312 2.048 189.826 2.64533 187 3.36C184.109 3.89333 181.026 5.35466 177.592 6.688C174.21 8.21333 170.274 9.22666 166.626 11.6693C162.957 13.9947 158.722 15.936 154.989 19.0507C151.373 22.2613 147.01 25.0453 143.789 29.12C140.269 32.9387 136.792 36.9493 134.093 41.5147C130.968 45.8667 128.845 50.6453 126.605 55.3707C124.578 60.096 122.946 64.928 121.613 69.6213C119.085 79.0293 117.954 87.968 117.517 95.616C117.154 103.275 117.368 109.643 117.816 114.251C117.976 116.427 118.274 118.539 118.488 120L118.754 121.792L119.032 121.728C120.929 130.59 125.296 138.734 131.629 145.218C137.961 151.702 146 156.26 154.815 158.366C163.629 160.472 172.861 160.039 181.44 157.118C190.019 154.197 197.596 148.907 203.294 141.859C208.992 134.811 212.579 126.295 213.639 117.294C214.699 108.293 213.189 99.1761 209.284 90.9976C205.379 82.819 199.238 75.9132 191.572 71.0789C183.906 66.2446 175.028 63.6794 165.965 63.68V63.68Z" fill="#CF2045"/>
</g>
</svg>
